<?xml version="1.0" encoding="UTF-8" standalone="no"?>
<!-- Created with Inkscape (http://www.inkscape.org/) -->
<svg
   xmlns:dc="http://purl.org/dc/elements/1.1/"
   xmlns:cc="http://web.resource.org/cc/"
   xmlns:rdf="http://www.w3.org/1999/02/22-rdf-syntax-ns#"
   xmlns:svg="http://www.w3.org/2000/svg"
   xmlns="http://www.w3.org/2000/svg"
   xmlns:sodipodi="http://sodipodi.sourceforge.net/DTD/sodipodi-0.dtd"
   xmlns:inkscape="http://www.inkscape.org/namespaces/inkscape"
   width="744.09448819"
   height="1052.3622047"
   id="svg2"
   sodipodi:version="0.32"
   inkscape:version="0.45.1"
   sodipodi:docbase="/home/prometheus/emonet/projects/OMiSCID-WebSite/image"
   sodipodi:docname="icons.svg"
   inkscape:output_extension="org.inkscape.output.svg.inkscape">
  <defs
     id="defs4" />
  <sodipodi:namedview
     id="base"
     pagecolor="#ffffff"
     bordercolor="#666666"
     borderopacity="1.0"
     gridtolerance="10000"
     guidetolerance="10"
     objecttolerance="10"
     inkscape:pageopacity="0.0"
     inkscape:pageshadow="2"
     inkscape:zoom="0.49497475"
     inkscape:cx="400.85822"
     inkscape:cy="407.71403"
     inkscape:document-units="px"
     inkscape:current-layer="layer1"
     inkscape:window-width="1280"
     inkscape:window-height="982"
     inkscape:window-x="1280"
     inkscape:window-y="0" />
  <metadata
     id="metadata7">
    <rdf:RDF>
      <cc:Work
         rdf:about="">
        <dc:format>image/svg+xml</dc:format>
        <dc:type
           rdf:resource="http://purl.org/dc/dcmitype/StillImage" />
      </cc:Work>
    </rdf:RDF>
  </metadata>
  <g
     inkscape:label="Layer 1"
     inkscape:groupmode="layer"
     id="layer1">
    <rect
       style="opacity:1;color:#000000;fill:#414ed9;fill-opacity:1;fill-rule:nonzero;stroke:none;stroke-width:1pt;stroke-linecap:butt;stroke-linejoin:miter;marker:none;marker-start:none;marker-mid:none;marker-end:none;stroke-miterlimit:4;stroke-dasharray:none;stroke-dashoffset:0;stroke-opacity:1;visibility:visible;display:inline;overflow:visible;enable-background:accumulate"
       id="rect3259"
       width="721.42859"
       height="985.71429"
       x="4.4091449"
       y="32.188877" />
    <g
       id="g2272"
       inkscape:export-filename="/home/prometheus/emonet/projects/OMiSCIDGui/,,frame48.png"
       inkscape:export-xdpi="9"
       inkscape:export-ydpi="9"
       transform="translate(471.42857,248.57143)">
      <rect
         y="-145.67874"
         x="-373.75644"
         height="480"
         width="480"
         id="rect2270"
         style="opacity:0;color:#000000;fill:#ff6767;fill-opacity:1;fill-rule:nonzero;stroke:none;stroke-width:1pt;stroke-linecap:butt;stroke-linejoin:miter;marker:none;marker-start:none;marker-mid:none;marker-end:none;stroke-miterlimit:4;stroke-dasharray:none;stroke-dashoffset:0;stroke-opacity:1;visibility:visible;display:inline;overflow:visible;enable-background:accumulate" />
      <path
         style="opacity:1;color:#000000;fill:#ffffff;fill-opacity:1;fill-rule:nonzero;stroke:none;stroke-width:1pt;stroke-linecap:butt;stroke-linejoin:miter;marker:none;marker-start:none;marker-mid:none;marker-end:none;stroke-miterlimit:4;stroke-dasharray:none;stroke-dashoffset:0;stroke-opacity:1;visibility:visible;display:inline;overflow:visible;enable-background:accumulate"
         d="M -57.28125,-95.875 C -125.22677,-95.493162 -198.14623,-85.583304 -236.125,-63.65625 C -299.38503,-27.133054 -346.56169,24.126685 -373.75,76.15625 L -373.75,248.28125 C -314.23359,313.40299 -165.1799,297.56856 -41.65625,209.6875 C 30.585091,158.2913 84.446431,97.128379 106.25,41.65625 L 106.25,-51.84375 C 102.46394,-58.63557 97.623056,-65.033194 91.6875,-70.96875 C 73.619665,-87.110945 10.664266,-96.256838 -57.28125,-95.875 z "
         id="rect3256" />
      <path
         inkscape:export-ydpi="4.4000001"
         inkscape:export-xdpi="4.4000001"
         inkscape:export-filename="/home/prometheus/emonet/projects/OMiSCIDGui/,,frame16.png"
         id="path2257"
         d="M -133.28627,-78.267788 C -138.70597,-78.166188 -144.92706,-77.285638 -149.46431,-75.684738 C -160.78099,-71.691828 -172.99058,-63.336558 -175.15884,-58.101881 C -176.77655,-54.196384 -176.69275,-53.256713 -174.43378,-50.760586 C -173.00862,-49.1858 -169.95071,-47.905637 -167.6816,-47.905637 C -165.41251,-47.905637 -163.55779,-47.313113 -163.55779,-46.636772 C -163.55779,-45.96043 -165.38867,-40.927745 -167.63629,-35.443562 C -171.71451,-25.492724 -171.74866,-25.498293 -180.55152,-22.347054 C -193.9818,-17.539299 -207.20345,-10.87697 -214.67495,-5.172048 L -221.38182,-0.051267994 L -238.91936,-0.051267994 L -256.45689,-0.051267994 L -255.59588,-3.359383 C -254.61817,-7.254888 -257.96663,-10.756319 -264.02477,-12.196127 C -274.09352,-14.589106 -301.28068,-2.949793 -311.47129,8.105727 C -318.76452,16.01794 -319.00824,21.235734 -312.24168,24.465033 C -303.21946,28.770839 -276.02891,19.920246 -263.84351,8.694844 L -258.99463,4.208496 L -243.04317,4.616346 L -227.13703,5.024196 L -230.35451,8.649527 C -234.36255,13.169039 -240.40313,25.801693 -240.4148,29.676447 C -240.43989,37.992883 -230.90549,45.55824 -218.16433,47.30462 L -211.63874,48.21095 L -216.75952,58.54314 L -221.8803,68.92065 L -234.43301,73.04447 C -263.95232,82.72577 -301.27836,105.20938 -324.70375,127.37912 C -354.16499,155.26117 -368.86263,180.50846 -370.51887,206.13943 C -371.52258,221.67228 -368.66811,230.7733 -359.77883,240.67071 C -352.7821,248.46098 -338.26961,255.84565 -325.9273,257.89103 C -295.21869,262.98013 -257.64645,254.99075 -217.71117,234.87018 C -192.4657,222.15078 -174.17505,209.15217 -155.40079,190.64114 C -129.3948,164.99977 -116.98206,144.13576 -112.98442,119.31276 C -110.37059,103.08235 -115.03532,89.07812 -126.57941,78.43715 C -139.76123,66.28656 -158.79084,61.2315 -185.30977,62.84822 C -193.68429,63.35879 -203.12347,64.40955 -206.29137,65.15937 C -209.45926,65.90921 -212.27107,66.29439 -212.54507,66.02039 C -213.2025,65.36296 -204.33567,47.8031 -203.34579,47.8031 C -202.92486,47.8031 -197.76586,46.84351 -191.88068,45.6279 C -166.03939,40.290226 -139.55235,25.054005 -126.17156,7.879144 L -121.14142,1.398864 L -110.44669,1.398864 C -104.57158,1.398864 -99.751962,1.96385 -99.751962,2.622414 C -99.751962,3.280948 -101.36638,5.307479 -103.33198,7.154078 C -105.29756,9.000647 -109.64851,16.054207 -112.98442,22.788318 C -118.2992,33.517064 -119.05685,36.221996 -119.05685,44.8122 C -119.05685,52.8616 -118.30281,55.98444 -114.88772,62.25911 C -107.2472,76.29726 -92.259911,85.21481 -69.797664,89.13187 C -44.910492,93.47183 -16.420411,90.68095 12.633299,81.0202 C 70.705619,61.71032 111.10555,19.830932 103.49316,-13.147776 C 98.993179,-32.642747 82.108999,-44.646653 51.560289,-49.990203 C 35.514939,-52.796847 28.749489,-52.794831 10.095569,-50.035519 C -10.040311,-47.056962 -32.214641,-40.380929 -50.084927,-31.908864 C -64.698984,-24.980538 -83.939704,-12.765971 -88.966602,-7.211297 C -91.160072,-4.787531 -93.453877,-4.401665 -105.05401,-4.401665 L -118.60368,-4.401665 L -118.60368,-10.292828 C -118.60368,-18.004574 -124.06445,-23.613918 -134.60046,-26.742768 C -143.13185,-29.276323 -149.49532,-29.503109 -158.84486,-27.694417 C -162.23454,-27.038682 -165.00792,-27.02476 -165.00792,-27.6491 C -165.00792,-28.273455 -163.75085,-31.776322 -162.19829,-35.398245 C -160.64575,-39.020183 -159.17749,-43.123188 -158.93549,-44.552206 C -158.69351,-45.98121 -156.85093,-47.583084 -154.85699,-48.086904 C -154.35116,-48.214719 -154.10323,-48.306556 -153.76939,-48.40412 C -153.03394,-48.485168 -152.17719,-48.578165 -151.23166,-48.766654 C -149.27566,-49.156565 -147.6725,-49.648726 -147.10785,-49.990203 C -144.10448,-50.923943 -139.36604,-52.915743 -136.63971,-54.3406 C -136.56683,-54.37868 -136.52824,-54.394008 -136.45844,-54.431233 C -135.68753,-54.745752 -134.65597,-55.263624 -133.55817,-55.881366 C -132.16047,-56.667888 -131.06348,-57.429382 -130.43133,-57.965931 C -130.33154,-58.04112 -130.17509,-58.155724 -130.06879,-58.237831 C -130.05039,-58.256842 -130.0396,-58.265238 -130.02348,-58.283147 C -128.9398,-59.123021 -127.5712,-60.266768 -125.85435,-61.817848 C -119.26393,-67.771898 -117.98512,-74.206848 -122.86345,-76.817648 C -124.52182,-77.705188 -127.49572,-78.182978 -131.02044,-78.267788 C -131.75476,-78.285448 -132.51203,-78.282298 -133.28627,-78.267788 z M -124.72143,-74.733088 C -124.66858,-74.752358 -124.60571,-74.744198 -124.54016,-74.733088 C -124.46525,-74.720398 -124.35866,-74.698328 -124.26826,-74.642458 C -121.41922,-72.881658 -123.23699,-67.322638 -128.34676,-62.089748 C -130.23761,-60.153338 -131.41993,-58.804688 -132.06273,-57.920614 C -132.69167,-57.627688 -133.3897,-57.304642 -134.14729,-56.878332 C -134.98706,-56.405777 -135.66649,-55.936181 -136.27717,-55.518833 C -136.29764,-55.504839 -136.34768,-55.532696 -136.36781,-55.518833 C -137.48486,-55.174673 -139.02336,-54.563674 -140.7182,-53.842117 C -144.10789,-52.398989 -147.86011,-50.857541 -149.05646,-50.398053 C -149.20258,-50.341932 -149.3024,-50.316657 -149.419,-50.262103 C -150.05045,-50.179315 -150.70483,-50.04976 -151.45825,-49.89957 C -152.67493,-49.657035 -153.75251,-49.389311 -154.53978,-49.129187 C -155.0638,-49.171212 -155.5264,-49.220153 -156.30713,-49.265137 C -156.93701,-49.301419 -157.22466,-49.362585 -157.66663,-49.401086 C -158.24324,-49.12823 -159.96034,-48.936305 -162.01702,-48.993237 C -164.02618,-49.048849 -165.72124,-49.287179 -166.3221,-49.582353 C -166.64164,-49.558585 -166.89619,-49.517242 -167.36439,-49.49172 C -169.06126,-49.399201 -171.34522,-50.497749 -172.43985,-51.893502 C -173.52167,-53.272926 -173.93487,-53.830298 -173.61808,-53.706167 C -173.42801,-53.631688 -172.96801,-53.294808 -172.25858,-52.754518 C -171.06222,-51.84337 -168.77827,-50.790139 -167.18312,-50.398053 C -166.69876,-50.278997 -166.40831,-50.211435 -166.09552,-50.126153 C -165.35994,-50.344963 -163.797,-50.448575 -161.97171,-50.398053 C -160.6848,-50.362423 -159.53509,-50.281433 -158.70891,-50.126153 C -158.69044,-50.132794 -158.68286,-50.119395 -158.66359,-50.126153 C -157.75186,-50.44595 -155.92805,-50.888328 -153.08964,-51.576285 C -142.22805,-54.208855 -134.98482,-58.057289 -128.93588,-64.355578 C -125.49509,-67.938188 -124.26265,-70.366288 -124.81206,-72.467258 C -125.14198,-73.728838 -125.0914,-74.598168 -124.72143,-74.733088 z M 68.010229,-37.029644 C 68.258669,-37.083111 69.177979,-36.656714 70.638589,-35.896728 C 76.812209,-32.684511 85.312479,-23.465802 87.949549,-17.13564 C 92.655459,-5.839341 89.446769,12.795339 80.744199,24.691617 C 74.140259,33.719125 60.662799,46.48989 50.789909,53.05983 C 29.617509,67.14901 -0.90534126,78.22949 -26.339011,81.06551 C -51.710061,83.89455 -72.180362,81.21521 -88.604069,72.90852 C -94.366504,69.99403 -103.90878,61.07858 -106.36819,56.32263 C -109.51079,50.24553 -108.86243,49.68619 -105.14464,55.23503 C -100.94177,61.5079 -90.004244,68.88128 -80.401758,71.91155 C -67.61913,75.94537 -42.175515,76.22017 -22.849631,72.54599 C 22.082519,64.00365 53.273479,46.53863 71.726189,19.616153 C 86.464309,-1.886759 86.687009,-18.261436 72.405939,-32.180764 C 68.976219,-35.523609 67.596169,-36.940534 68.010229,-37.029644 z M -131.38298,-19.718689 C -130.93119,-19.816471 -129.88575,-19.046291 -128.70929,-17.634123 C -125.01057,-13.194326 -125.01764,-4.47787 -128.70929,2.758364 C -135.54748,16.162329 -162.24729,33.888544 -184.58471,39.87269 C -203.2405,44.87053 -222.95611,43.572935 -230.39983,36.836475 C -235.01993,32.655337 -233.51072,31.706835 -228.08868,35.386343 C -221.50426,39.854635 -211.72928,41.145964 -199.22198,39.147623 C -163.14982,33.384217 -128.75461,8.763681 -128.75461,-11.289794 C -128.75461,-13.782412 -129.40717,-16.234862 -130.20474,-16.727791 C -131.00232,-17.22072 -131.6361,-18.360944 -131.60956,-19.310839 C -131.60292,-19.548313 -131.53357,-19.68609 -131.38298,-19.718689 z M -259.71969,-2.226467 C -259.66338,-2.245376 -259.62858,-2.241272 -259.58374,-2.226467 C -259.36848,-2.155396 -259.26809,-1.712888 -259.26653,-0.91228399 C -259.25946,2.681855 -269.75741,12.361735 -278.48078,16.806522 C -282.25585,18.730021 -289.04891,21.281398 -293.61654,22.471101 C -302.21415,24.710497 -303.00017,24.739224 -307.84596,23.558701 C -311.36569,22.701237 -315.82168,18.930096 -315.82169,16.806522 C -315.82169,15.955091 -314.77613,16.792919 -313.46522,18.664504 C -311.26996,21.798675 -310.31506,22.023837 -301.36568,21.383502 C -286.21471,20.299456 -268.1006,10.820796 -261.94021,0.71911501 C -260.81521,-1.125642 -260.1139,-2.09407 -259.71969,-2.226467 z M -144.93265,78.98095 L -139.04149,84.73616 C -128.76676,94.69383 -124.94288,110.69421 -128.93588,127.28848 C -129.83651,131.03135 -133.01449,139.30646 -135.95996,145.68704 C -155.38123,187.75819 -213.87893,229.86263 -270.73164,242.66464 C -276.11864,243.87768 -287.9359,244.76304 -299.00922,244.79453 C -324.45146,244.86693 -334.22162,242.02136 -346.50105,230.92763 C -355.30498,222.97383 -358.28641,215.89745 -358.73655,202.2422 L -359.1444,190.64114 L -358.0568,200.3389 C -356.27081,216.17106 -347.78842,226.15605 -330.86681,232.28713 C -323.93723,234.79788 -319.14915,235.32742 -304.9457,235.27803 C -257.35015,235.1126 -205.15396,212.05719 -170.71782,175.95855 C -148.4794,152.64651 -137.77333,135.29584 -134.41919,117.09224 C -132.09828,104.49623 -133.64265,95.93131 -139.85719,86.63946 L -144.93265,78.98095 z "
         style="fill:#000000" />
    </g>
    <g
       id="g2225"
       transform="translate(-277.14286,-257.14286)" />
    <path
       style="fill:#000000"
       d="M 111.60924,882.52924 C 103.12642,881.11816 92.520411,875.69519 87.836481,870.37396 C 78.312871,859.55457 78.058221,842.36976 87.151481,824.1479 C 94.141061,810.14159 111.75927,791.17108 129.92858,778.08742 C 140.04426,770.80315 165.25635,757.94339 176.03358,754.57095 L 183.13859,752.34763 L 186.71293,745.12401 L 190.28728,737.90038 L 185.6889,737.2701 C 183.15979,736.92345 179.16056,735.5088 176.80174,734.12643 C 169.90715,730.08594 169.17185,723.70596 174.58152,714.86242 C 175.83123,712.81943 177.51492,710.4729 178.32305,709.6479 C 179.62703,708.3167 178.54488,708.11618 168.70707,707.86605 L 157.62175,707.5842 L 154.27516,710.66714 C 145.87221,718.40809 127.12856,724.52376 120.90691,721.55451 C 113.44897,717.99526 119.27418,709.0204 133.83394,701.63792 C 140.64103,698.18641 143.52495,697.30242 149.33394,696.88678 C 155.32692,696.45799 156.79706,696.6714 158.50634,698.21827 C 159.89504,699.47503 160.35893,700.78927 159.96617,702.35415 L 159.39047,704.6479 L 171.36512,704.6479 L 183.33977,704.6479 L 189.13417,700.58016 C 195.44239,696.15172 204.72212,691.57377 212.64067,688.98374 C 217.24995,687.47612 217.87512,686.88705 220.02492,682.02597 C 221.31668,679.10508 222.65973,675.57511 223.00948,674.18158 C 223.58253,671.89838 223.35342,671.6479 220.69198,671.6479 C 218.98446,671.6479 216.95586,670.78304 215.88318,669.59773 C 214.0848,667.61054 214.08376,667.44367 215.84941,664.16505 C 217.89801,660.36104 226.32266,654.74589 233.71353,652.25836 C 239.12695,650.43638 248.59259,650.13013 251.49432,651.68308 C 254.85838,653.48347 253.9704,657.92567 249.4257,662.03154 C 244.15565,666.79271 243.01953,666.67522 247.72563,661.85574 C 251.24929,658.24718 252.48652,654.41977 250.52184,653.20554 C 250.02313,652.89732 249.85822,653.57484 250.15537,654.71114 C 250.53424,656.15995 249.68485,657.82961 247.31211,660.30015 C 243.06897,664.7182 238.58647,667.03561 230.92858,668.77028 C 225.03439,670.10544 224.9903,670.14048 228.42858,670.75701 C 231.07612,671.23176 231.31968,671.41702 229.42858,671.51765 C 227.27186,671.63241 226.65912,672.50869 224.96618,677.89929 C 223.88686,681.33602 222.86199,684.5979 222.68869,685.1479 C 222.48879,685.78232 225.91734,686.02999 232.06696,685.82539 C 247.23607,685.32069 254.42858,689.16672 254.42858,697.78276 L 254.42858,701.6479 L 263.48469,701.6479 L 272.5408,701.6479 L 278.61506,696.73298 C 285.56163,691.11226 300.03321,682.84405 309.48609,679.09511 C 313.02946,677.68984 321.10358,675.1549 327.42858,673.46192 C 342.00812,669.55948 364.17767,668.45975 376.33452,671.03593 C 405.20861,677.15468 415.8573,697.12526 402.36779,719.85881 C 384.08131,750.67658 328.7487,773.27641 288.72562,766.27435 C 266.07762,762.31207 254.42858,751.77083 254.42858,735.23889 C 254.42858,729.05533 254.90755,727.25568 258.46411,720.07617 C 260.68366,715.59564 263.60866,710.8879 264.96411,709.61452 C 266.31957,708.34113 267.42858,706.92771 267.42858,706.47359 C 267.42858,706.01946 264.11378,705.6479 260.06235,705.6479 L 252.69613,705.6479 L 249.31235,709.97184 C 239.30224,722.76324 219.11954,733.68165 199.16921,737.09823 C 195.78561,737.67769 195.10438,738.34717 192.35374,743.79616 C 190.67288,747.12593 189.45223,750.00488 189.64118,750.19383 C 189.83013,750.38278 191.7721,750.11432 193.95665,749.59724 C 196.14121,749.08017 202.65358,748.36904 208.42858,748.01696 C 255.64318,745.13849 272.63713,776.4725 245.77542,816.87829 C 218.75393,857.52441 153.43477,889.48675 111.60924,882.52924 z M 150.5864,871.73168 C 168.49659,867.5473 184.37389,860.50452 201.43331,849.17723 C 241.8168,822.363 260.00304,782.14775 240.35615,763.10713 L 236.27086,759.1479 L 239.79027,764.41004 C 249.93949,779.58494 242.58575,800.89148 218.53355,825.99874 C 201.07921,844.21873 177.94484,857.12211 150.77436,863.792 C 134.22789,867.85387 117.51271,868.26685 108.07402,864.84701 C 96.149881,860.52663 90.476491,853.71051 89.313741,842.30805 L 88.583601,835.1479 L 88.833431,843.6479 C 89.126131,853.60654 91.089431,858.3019 97.311101,863.9228 C 103.25002,869.28826 109.64558,872.09173 120.42858,874.05629 C 125.50207,874.98063 142.18389,873.69477 150.5864,871.73168 z M 328.42858,759.01246 C 354.07534,753.73025 378.0346,739.82218 391.41365,722.45039 C 404.06125,706.02834 399.39034,685.6838 381.17858,677.87058 C 377.11061,676.12534 377.82218,676.97199 383.26917,680.35802 C 386.85544,682.58737 388.79887,684.74998 390.76917,688.70384 C 395.22882,697.65321 393.9043,705.6507 385.99112,717.55382 C 373.11823,736.91742 350.3895,749.45923 317.90492,755.12407 C 292.93951,759.47767 270.63054,754.2265 263.34718,742.28207 C 261.11307,738.61822 260.77559,739.48447 262.86384,743.52271 C 266.00647,749.59988 275.3775,756.18327 284.4342,758.67644 C 296.05973,761.87676 313.86135,762.01272 328.42858,759.01246 z M 207.01862,732.6578 C 223.65742,728.47157 242.493,716.32244 247.47034,706.56604 C 250.01608,701.57597 250.01246,695.57033 247.46185,692.50868 C 246.38015,691.21025 245.48015,690.68384 245.46185,691.33888 C 245.44355,691.99392 245.87858,692.80798 246.42858,693.1479 C 247.8922,694.05247 247.64899,699.18463 245.94977,703.25142 C 243.69329,708.65195 232.9015,718.70765 224.89135,722.87349 C 214.62518,728.21261 201.57871,731.80869 191.92858,731.95921 C 183.69078,732.0877 181.14274,731.31505 176.47423,727.27294 L 174.01988,725.1479 L 175.54858,727.6479 C 179.65556,734.36435 192.26015,736.37094 207.01862,732.6578 z M 133.73528,720.15623 C 145.47193,717.09922 157.47444,708.65515 157.38943,703.51492 C 157.35447,701.40048 157.20222,701.48837 155.96265,704.3386 C 153.15452,710.79547 139.66897,718.32718 129.15874,719.30864 C 123.43356,719.84326 122.44889,719.66821 120.56083,717.78016 C 119.38809,716.60742 118.42858,716.02816 118.42858,716.49291 C 118.42858,717.54213 121.41633,720.19858 123.42858,720.93847 C 125.9199,721.85451 127.74776,721.71578 133.73528,720.15623 z M 221.42858,669.93383 C 220.60358,669.62793 219.02858,668.91478 217.92858,668.34905 C 216.14072,667.42956 216.07416,667.49693 217.30102,668.98418 C 218.05587,669.89923 219.63087,670.61237 220.80102,670.56895 C 222.26194,670.51474 222.45857,670.31573 221.42858,669.93383 z M 233.92858,669.6479 C 236.67767,668.46658 238.25655,668.46658 236.42858,669.6479 C 235.60358,670.18106 234.25358,670.59254 233.42858,670.5623 C 232.43952,670.52606 232.60984,670.21458 233.92858,669.6479 z M 238.51191,668.28335 C 238.74108,668.08286 240.05358,667.38303 241.42858,666.72819 C 243.78585,665.60554 243.81776,665.62636 241.98745,667.09273 C 240.39445,668.36899 237.13959,669.48401 238.51191,668.28335 z "
       id="path2221" />
    <rect
       style="opacity:1;color:#000000;fill:#ffffff;fill-opacity:1;fill-rule:nonzero;stroke:#000000;stroke-width:1;stroke-linecap:butt;stroke-linejoin:miter;marker:none;marker-start:none;marker-mid:none;marker-end:none;stroke-miterlimit:4;stroke-dasharray:none;stroke-dashoffset:0;stroke-opacity:1;visibility:visible;display:inline;overflow:visible;enable-background:accumulate"
       id="rect2166"
       width="47"
       height="47"
       x="-304.88495"
       y="540.06421"
       inkscape:export-filename="/home/prometheus/emonet/projects/OMiSCID-WebSite/image/icon-48x48.png"
       inkscape:export-xdpi="90"
       inkscape:export-ydpi="90" />
    <path
       inkscape:export-ydpi="4.4000001"
       inkscape:export-xdpi="4.4000001"
       inkscape:export-filename="/home/prometheus/emonet/projects/OMiSCIDGui/,,frame16.png"
       id="path2164"
       d="M -281.39771,549.94804 C -281.89911,549.95744 -282.47451,550.03889 -282.89421,550.18699 C -283.94101,550.55634 -285.07051,551.32921 -285.27111,551.81343 C -285.42061,552.1747 -285.41291,552.26163 -285.20401,552.49252 C -285.07221,552.63819 -284.78921,552.75661 -284.57941,552.75661 C -284.36951,552.75661 -284.19791,552.81142 -284.19791,552.87399 C -284.19791,552.93655 -284.36731,553.40208 -284.57511,553.90938 C -284.95251,554.82986 -284.95551,554.82934 -285.76991,555.12084 C -287.01221,555.56556 -288.23521,556.18185 -288.92641,556.70956 L -289.54681,557.18324 L -291.16901,557.18324 L -292.79131,557.18324 L -292.71161,556.87724 C -292.62111,556.5169 -292.93091,556.193 -293.49131,556.05981 C -294.42271,555.83847 -296.93761,556.91512 -297.88031,557.93778 C -298.55491,558.66968 -298.57741,559.15234 -297.95151,559.45106 C -297.11691,559.84935 -294.60181,559.03065 -293.47461,557.99228 L -293.02601,557.57728 L -291.55051,557.61501 L -290.07921,557.65273 L -290.37671,557.98809 C -290.74741,558.40615 -291.30631,559.5747 -291.30741,559.93313 C -291.30971,560.70242 -290.42781,561.40222 -289.24911,561.56377 L -288.64551,561.64761 L -289.11921,562.60336 L -289.59281,563.5633 L -290.75411,563.94476 C -293.48461,564.8403 -296.93741,566.92009 -299.10431,568.97084 C -301.82951,571.54999 -303.18911,573.88542 -303.34221,576.25635 C -303.43511,577.69317 -303.17101,578.53504 -302.34881,579.45057 C -301.70161,580.17119 -300.35921,580.85427 -299.21741,581.04348 C -296.37681,581.51423 -292.90131,580.7752 -289.20721,578.91401 C -286.87191,577.73743 -285.18001,576.53503 -283.44341,574.82272 C -281.03781,572.45084 -279.88951,570.52087 -279.51981,568.22468 C -279.27791,566.72334 -279.70951,565.42791 -280.77731,564.44359 C -281.99671,563.31964 -283.75701,562.85203 -286.21001,563.00159 C -286.98471,563.04881 -287.85781,563.14602 -288.15081,563.21538 C -288.44391,563.28473 -288.70401,563.32036 -288.72931,563.29503 C -288.79021,563.23421 -287.96991,561.60988 -287.87841,561.60988 C -287.83941,561.60988 -287.36221,561.52111 -286.81781,561.40867 C -284.42741,560.91492 -281.97741,559.50554 -280.73961,557.91683 L -280.27431,557.31738 L -279.28501,557.31738 C -278.74151,557.31738 -278.29571,557.36964 -278.29571,557.43057 C -278.29571,557.49148 -278.44511,557.67894 -278.62691,557.84976 C -278.80871,558.02057 -279.21121,558.67304 -279.51981,559.29596 C -280.01141,560.28839 -280.08141,560.53861 -280.08141,561.33322 C -280.08141,562.0778 -280.01171,562.36668 -279.69581,562.94709 C -278.98911,564.24565 -277.60261,565.07054 -275.52491,565.43288 C -273.22281,565.83434 -270.58741,565.57618 -267.89981,564.68254 C -262.52801,562.89633 -258.79091,559.02239 -259.49511,555.97179 C -259.91141,554.16847 -261.47321,553.05807 -264.29901,552.56378 C -265.78321,552.30416 -266.40911,552.30435 -268.13461,552.55959 C -269.99731,552.83511 -272.04841,553.45266 -273.70141,554.23635 C -275.05321,554.87723 -276.83301,556.00711 -277.29801,556.52092 C -277.50091,556.74513 -277.71321,556.78082 -278.78621,556.78082 L -280.03961,556.78082 L -280.03961,556.23587 C -280.03961,555.52253 -280.54471,555.00365 -281.51931,554.71422 C -282.30851,554.47987 -282.89721,554.45889 -283.76201,554.6262 C -284.07551,554.68685 -284.33211,554.68814 -284.33211,554.63038 C -284.33211,554.57263 -284.21581,554.24861 -284.07211,553.91358 C -283.92851,553.57853 -283.79271,553.19899 -283.77031,553.06681 C -283.74791,552.93463 -283.57751,552.78645 -283.39311,552.73984 C -283.34631,552.72802 -283.32331,552.71953 -283.29251,552.7105 C -283.22441,552.703 -283.14511,552.6944 -283.05771,552.67696 C -282.87671,552.64089 -282.72851,552.59537 -282.67621,552.56378 C -282.39841,552.47741 -281.96011,552.29317 -281.70791,552.16136 C -281.70121,552.15784 -281.69761,552.15642 -281.69111,552.15298 C -281.61991,552.12389 -281.52441,552.07598 -281.42281,552.01884 C -281.29361,551.94608 -281.19211,551.87564 -281.13361,551.82601 C -281.12441,551.81906 -281.10991,551.80846 -281.10011,551.80086 C -281.09841,551.7991 -281.09741,551.79833 -281.09591,551.79666 C -280.99571,551.71898 -280.86901,551.61317 -280.71031,551.46969 C -280.10061,550.91893 -279.98231,550.32368 -280.43351,550.08218 C -280.58701,550.00008 -280.86201,549.95589 -281.18811,549.94804 C -281.25601,549.94641 -281.32611,549.9467 -281.39771,549.94804 z M -280.60551,550.27501 C -280.60061,550.27322 -280.59471,550.27398 -280.58871,550.27501 C -280.58181,550.27618 -280.57181,550.27823 -280.56351,550.28339 C -280.30001,550.44627 -280.46821,550.9605 -280.94091,551.44454 C -281.11581,551.62367 -281.22511,551.74843 -281.28451,551.8302 C -281.34271,551.85729 -281.40731,551.88718 -281.47741,551.92662 C -281.55501,551.97032 -281.61791,552.01377 -281.67431,552.05237 C -281.67631,552.05367 -281.68101,552.05109 -281.68281,552.05237 C -281.78611,552.08421 -281.92841,552.14073 -282.08521,552.20747 C -282.39881,552.34096 -282.74591,552.48356 -282.85651,552.52605 C -282.87001,552.53125 -282.87931,552.53359 -282.89011,552.53863 C -282.94841,552.5463 -283.00901,552.55828 -283.07871,552.57217 C -283.19131,552.5946 -283.29091,552.61936 -283.36371,552.64342 C -283.41221,552.63955 -283.45501,552.63502 -283.52721,552.63086 C -283.58551,552.6275 -283.61201,552.62184 -283.65291,552.61827 C -283.70631,552.64352 -283.86521,552.66127 -284.05531,552.65601 C -284.24131,552.65087 -284.39801,552.62881 -284.45361,552.60151 C -284.48321,552.60371 -284.50671,552.60753 -284.55011,552.60989 C -284.70701,552.61846 -284.91831,552.51684 -285.01951,552.38773 C -285.11951,552.26012 -285.15781,552.20857 -285.12851,552.22005 C -285.11101,552.22694 -285.06841,552.2581 -285.00281,552.30807 C -284.89211,552.39236 -284.68081,552.48979 -284.53331,552.52605 C -284.48851,552.53707 -284.46161,552.54332 -284.43271,552.5512 C -284.36461,552.53097 -284.22011,552.52139 -284.05121,552.52605 C -283.93211,552.52936 -283.82571,552.53685 -283.74941,552.5512 C -283.74771,552.55059 -283.74691,552.55183 -283.74521,552.5512 C -283.66091,552.52162 -283.49211,552.48071 -283.22961,552.41706 C -282.22491,552.17355 -281.55491,551.81755 -280.99531,551.23496 C -280.67701,550.90355 -280.56301,550.67895 -280.61381,550.4846 C -280.64431,550.3679 -280.63971,550.28749 -280.60551,550.27501 z M -262.77741,553.76267 C -262.75441,553.75772 -262.66931,553.79716 -262.53421,553.86746 C -261.96311,554.1646 -261.17691,555.01735 -260.93301,555.6029 C -260.49761,556.64784 -260.79441,558.37159 -261.59941,559.47202 C -262.21041,560.30708 -263.45701,561.48841 -264.37031,562.09614 C -266.32871,563.39943 -269.15211,564.42439 -271.50491,564.68672 C -273.85171,564.94842 -275.74521,564.70058 -277.26451,563.93218 C -277.79761,563.66259 -278.68031,562.8379 -278.90771,562.39796 C -279.19841,561.83581 -279.13851,561.78407 -278.79461,562.29736 C -278.40581,562.87761 -277.39411,563.55966 -276.50581,563.83996 C -275.32341,564.21311 -272.96981,564.23853 -271.18211,563.89865 C -267.02571,563.10847 -264.14061,561.49292 -262.43361,559.00253 C -261.07031,557.01346 -261.04971,555.49876 -262.37071,554.21119 C -262.68811,553.90197 -262.81571,553.7709 -262.77741,553.76267 z M -281.22161,555.36397 C -281.17991,555.35491 -281.08321,555.42616 -280.97441,555.5568 C -280.63221,555.96748 -280.63281,556.77377 -280.97441,557.44314 C -281.60691,558.68304 -284.07661,560.32276 -286.14301,560.8763 C -287.86871,561.33862 -289.69241,561.21859 -290.38101,560.59545 C -290.80831,560.20868 -290.66881,560.12095 -290.16721,560.46131 C -289.55811,560.87463 -288.65381,560.99409 -287.49691,560.80923 C -284.16011,560.2761 -280.97861,557.99865 -280.97861,556.14365 C -280.97861,555.91308 -281.03891,555.68623 -281.11271,555.64062 C -281.18651,555.59503 -281.24511,555.48956 -281.24271,555.40169 C -281.24211,555.37972 -281.23561,555.36698 -281.22161,555.36397 z M -293.09311,556.98203 C -293.08791,556.98028 -293.08461,556.98066 -293.08051,556.98203 C -293.06061,556.98862 -293.05131,557.02954 -293.05121,557.1036 C -293.05051,557.43607 -294.02171,558.33148 -294.82861,558.74263 C -295.17781,558.92056 -295.80611,559.15657 -296.22861,559.26662 C -297.02391,559.47377 -297.09661,559.47642 -297.54491,559.36723 C -297.87051,559.2879 -298.28271,558.93907 -298.28271,558.74263 C -298.28271,558.66387 -298.18591,558.74137 -298.06471,558.9145 C -297.86161,559.20441 -297.77331,559.22524 -296.94551,559.16602 C -295.54401,559.06573 -293.86831,558.18894 -293.29841,557.25451 C -293.19441,557.08386 -293.12951,556.99428 -293.09311,556.98203 z M -282.47501,564.4939 L -281.93011,565.02627 C -280.97971,565.94738 -280.62591,567.42745 -280.99531,568.96246 C -281.07851,569.30868 -281.37251,570.07415 -281.64511,570.66437 C -283.44161,574.55604 -288.85271,578.45079 -294.11171,579.635 C -294.61001,579.74722 -295.70321,579.82911 -296.72751,579.83203 C -299.08091,579.83872 -299.98471,579.57551 -301.12061,578.54931 C -301.93501,577.81357 -302.21071,577.15898 -302.25231,575.89584 L -302.29021,574.82272 L -302.18961,575.71978 C -302.02431,577.18429 -301.23971,578.10793 -299.67441,578.67506 C -299.03331,578.90731 -298.59051,578.95629 -297.27661,578.95173 C -292.87391,578.93643 -288.04571,576.80375 -284.86021,573.46454 C -282.80321,571.30813 -281.81281,569.70316 -281.50251,568.01928 C -281.28781,566.85412 -281.43071,566.06185 -282.00551,565.20233 L -282.47501,564.4939 z "
       style="fill:#000000" />
    <text
       xml:space="preserve"
       style="font-size:9px;font-style:normal;font-variant:normal;font-weight:normal;font-stretch:normal;text-align:start;line-height:125%;writing-mode:lr-tb;text-anchor:start;fill:#000000;fill-opacity:1;stroke:none;stroke-width:1pt;stroke-linecap:butt;stroke-linejoin:miter;stroke-opacity:1;font-family:Bitstream Vera Sans"
       x="-296.35321"
       y="528.02136"
       id="text3139"
       sodipodi:linespacing="125%"><tspan
         sodipodi:role="line"
         id="tspan3141"
         x="-296.35321"
         y="528.02136">48x48</tspan></text>
    <rect
       style="opacity:1;color:#000000;fill:#ffffff;fill-opacity:1;fill-rule:nonzero;stroke:#000000;stroke-width:1;stroke-linecap:butt;stroke-linejoin:miter;marker:none;marker-start:none;marker-mid:none;marker-end:none;stroke-miterlimit:4;stroke-dasharray:none;stroke-dashoffset:0;stroke-opacity:1;visibility:visible;display:inline;overflow:visible;enable-background:accumulate"
       id="rect3143"
       width="16"
       height="16"
       x="-309.62103"
       y="649.66418"
       inkscape:export-filename="/home/prometheus/emonet/projects/OMiSCID-WebSite/image/icon-16x16.png"
       inkscape:export-xdpi="84.709999"
       inkscape:export-ydpi="84.709999" />
    <path
       inkscape:export-ydpi="4.4000001"
       inkscape:export-xdpi="4.4000001"
       inkscape:export-filename="/home/prometheus/emonet/projects/OMiSCIDGui/,,frame16.png"
       id="path3145"
       d="M -301.62521,653.65441 C -301.78836,653.65747 -301.97558,653.68397 -302.11214,653.73216 C -302.45275,653.85234 -302.82027,654.10382 -302.88554,654.26138 C -302.93419,654.37893 -302.93168,654.40721 -302.86371,654.48234 C -302.82082,654.52974 -302.72874,654.56827 -302.66048,654.56827 C -302.59218,654.56827 -302.53634,654.5861 -302.53634,654.60646 C -302.53634,654.62682 -302.59146,654.77829 -302.65908,654.94336 C -302.78188,655.24287 -302.78285,655.2427 -303.04784,655.33755 C -303.45207,655.48225 -303.85001,655.68278 -304.07491,655.85449 L -304.27678,656.00861 L -304.80461,656.00861 L -305.33248,656.00861 L -305.30655,655.90905 C -305.2771,655.7918 -305.3779,655.68641 -305.56025,655.64307 C -305.86331,655.57105 -306.68161,655.92137 -306.98835,656.25413 C -307.20785,656.49227 -307.21517,656.64932 -307.01151,656.74652 C -306.73995,656.87612 -305.92158,656.60973 -305.55481,656.27186 L -305.40885,656.13683 L -304.92875,656.1491 L -304.45001,656.16138 L -304.54681,656.2705 C -304.66743,656.40653 -304.84929,656.78675 -304.84964,656.90338 C -304.85039,657.15369 -304.56344,657.38139 -304.17991,657.43396 L -303.98351,657.46124 L -304.13764,657.77222 L -304.29175,658.08457 L -304.66961,658.20869 C -305.55807,658.50008 -306.68154,659.17681 -307.38661,659.84408 C -308.27334,660.68329 -308.71573,661.4432 -308.76555,662.21465 C -308.79578,662.68217 -308.70984,662.9561 -308.44231,663.254 C -308.23173,663.48847 -307.79493,663.71073 -307.42341,663.7723 C -306.49913,663.92547 -305.36827,663.68501 -304.16628,663.07941 C -303.40641,662.69657 -302.8559,662.30533 -302.29084,661.74818 C -301.50811,660.97641 -301.13447,660.34843 -301.01418,659.6013 C -300.93547,659.11279 -301.0759,658.69128 -301.42334,658.371 C -301.82011,658.00529 -302.39288,657.85313 -303.19104,657.9018 C -303.44312,657.91716 -303.72721,657.94879 -303.82254,657.97136 C -303.91791,657.99393 -304.00255,658.00552 -304.01078,657.99728 C -304.03059,657.97749 -303.76368,657.44896 -303.73391,657.44896 C -303.72122,657.44896 -303.56595,657.42008 -303.38881,657.38349 C -302.61102,657.22283 -301.81383,656.76425 -301.41108,656.24731 L -301.25968,656.05226 L -300.93778,656.05226 C -300.76093,656.05226 -300.61588,656.06927 -300.61588,656.08909 C -300.61588,656.10891 -300.66449,656.16991 -300.72364,656.22549 C -300.7828,656.28107 -300.91376,656.49337 -301.01418,656.69605 C -301.17413,657.01897 -301.19691,657.10039 -301.19691,657.35894 C -301.19691,657.60121 -301.17423,657.69521 -301.07144,657.88407 C -300.8415,658.30659 -300.39035,658.575 -299.71431,658.6929 C -298.96525,658.82352 -298.10774,658.73952 -297.23324,658.44875 C -295.48536,657.86755 -294.26937,656.60704 -294.49851,655.61443 C -294.63396,655.02766 -295.14214,654.66636 -296.06161,654.50553 C -296.54454,654.42105 -296.74819,654.42111 -297.30964,654.50416 C -297.91573,654.59381 -298.58312,654.79475 -299.12098,655.04975 C -299.56083,655.25828 -300.13994,655.62592 -300.29124,655.79311 C -300.35726,655.86606 -300.42634,655.87767 -300.77548,655.87767 L -301.18331,655.87767 L -301.18331,655.70036 C -301.18331,655.46825 -301.34766,655.29942 -301.66478,655.20524 C -301.92157,655.12899 -302.11312,655.12216 -302.39451,655.1766 C -302.49652,655.19633 -302.58001,655.19675 -302.58001,655.17796 C -302.58001,655.15917 -302.54217,655.05374 -302.49541,654.94473 C -302.44869,654.83571 -302.4045,654.71221 -302.39721,654.6692 C -302.38992,654.62619 -302.33448,654.57798 -302.27448,654.56281 C -302.25925,654.55897 -302.25176,654.5562 -302.24174,654.55327 C -302.21958,654.55083 -302.19378,654.54803 -302.16534,654.54235 C -302.10645,654.53062 -302.05823,654.51581 -302.04121,654.50553 C -301.95082,654.47742 -301.8082,654.41747 -301.72614,654.37459 C -301.72396,654.37344 -301.72279,654.37298 -301.72068,654.37186 C -301.69751,654.36239 -301.66644,654.34681 -301.63338,654.32821 C -301.59134,654.30454 -301.55831,654.28162 -301.53928,654.26547 C -301.53628,654.26321 -301.53157,654.25976 -301.52838,654.25729 C -301.52782,654.25671 -301.5275,654.25646 -301.52701,654.25592 C -301.49441,654.23064 -301.45318,654.19622 -301.40154,654.14953 C -301.20316,653.97032 -301.16466,653.77664 -301.31148,653.69806 C -301.36142,653.67135 -301.4509,653.65697 -301.55701,653.65441 C -301.5791,653.65388 -301.60191,653.65398 -301.62521,653.65441 z M -301.36744,653.7608 C -301.36585,653.76022 -301.36393,653.76047 -301.36198,653.7608 C -301.35973,653.76118 -301.35648,653.76185 -301.35378,653.76353 C -301.26804,653.81653 -301.32277,653.98385 -301.47658,654.14135 C -301.53348,654.19963 -301.56905,654.24023 -301.58838,654.26683 C -301.60731,654.27565 -301.62833,654.28537 -301.65114,654.29821 C -301.67639,654.31243 -301.69686,654.32656 -301.71521,654.33912 C -301.71586,654.33955 -301.71739,654.33871 -301.71798,654.33912 C -301.75159,654.34948 -301.79789,654.36787 -301.84891,654.38959 C -301.95095,654.43302 -302.06389,654.47942 -302.09988,654.49325 C -302.10427,654.49494 -302.1073,654.4957 -302.11081,654.49734 C -302.12978,654.49984 -302.1495,654.50374 -302.17218,654.50826 C -302.20881,654.51555 -302.24122,654.52361 -302.26491,654.53144 C -302.28069,654.53018 -302.29462,654.52871 -302.31811,654.52735 C -302.33708,654.52626 -302.3457,654.52442 -302.35901,654.52326 C -302.37639,654.53147 -302.42809,654.53725 -302.48994,654.53554 C -302.55047,654.53386 -302.60145,654.52669 -302.61954,654.5178 C -302.62918,654.51852 -302.63682,654.51976 -302.65094,654.52053 C -302.702,654.52332 -302.77075,654.49025 -302.80368,654.44824 C -302.83622,654.40672 -302.84868,654.38995 -302.83914,654.39368 C -302.83345,654.39592 -302.81959,654.40606 -302.79824,654.42232 C -302.76222,654.44975 -302.69347,654.48145 -302.64548,654.49325 C -302.6309,654.49684 -302.62215,654.49887 -302.61274,654.50143 C -302.59058,654.49485 -302.54357,654.49173 -302.48861,654.49325 C -302.44986,654.49433 -302.41524,654.49676 -302.39041,654.50143 C -302.38986,654.50123 -302.3896,654.50164 -302.38904,654.50143 C -302.36161,654.49181 -302.30669,654.4785 -302.22128,654.45779 C -301.89437,654.37855 -301.67636,654.26272 -301.49428,654.07315 C -301.39071,653.96532 -301.35361,653.89224 -301.37014,653.829 C -301.38007,653.79103 -301.37857,653.76486 -301.36744,653.7608 z M -295.56651,654.89562 C -295.55902,654.89401 -295.53133,654.90685 -295.48737,654.92972 C -295.30155,655.0264 -295.04573,655.30387 -294.96637,655.4944 C -294.8247,655.8344 -294.92127,656.39528 -295.18321,656.75334 C -295.38201,657.02505 -295.78763,657.40944 -296.08481,657.60718 C -296.72203,658.03125 -297.64072,658.36475 -298.40627,658.45011 C -299.16988,658.53526 -299.78599,658.45462 -300.28034,658.2046 C -300.4538,658.11688 -300.74102,657.84854 -300.81501,657.70539 C -300.9096,657.52248 -300.89011,657.50564 -300.77821,657.67266 C -300.6517,657.86146 -300.32251,658.08338 -300.03348,658.17459 C -299.64874,658.296 -298.88293,658.30428 -298.30124,658.19369 C -296.94882,657.93658 -296.01007,657.4109 -295.45464,656.60058 C -295.01105,655.95337 -295.00434,655.46052 -295.43417,655.04156 C -295.53745,654.94095 -295.57897,654.8983 -295.56651,654.89562 z M -301.56791,655.41666 C -301.55434,655.41371 -301.52288,655.43689 -301.48748,655.4794 C -301.37613,655.61303 -301.37633,655.87538 -301.48748,656.09318 C -301.69328,656.49662 -302.49687,657.03016 -303.16924,657.21027 C -303.73075,657.3607 -304.32415,657.32164 -304.54821,657.11888 C -304.68725,656.99304 -304.64186,656.96449 -304.47864,657.07524 C -304.28045,657.20972 -303.98621,657.24859 -303.60978,657.18844 C -302.52404,657.01497 -301.48884,656.27393 -301.48884,655.67035 C -301.48884,655.59533 -301.50846,655.52151 -301.53248,655.50667 C -301.55649,655.49184 -301.57556,655.45752 -301.57478,655.42893 C -301.57458,655.42178 -301.57247,655.41764 -301.56791,655.41666 z M -305.43068,655.94314 C -305.42899,655.94257 -305.42791,655.9427 -305.42658,655.94314 C -305.4201,655.94529 -305.41708,655.9586 -305.41705,655.9827 C -305.41682,656.09088 -305.73283,656.38223 -305.99538,656.51601 C -306.109,656.57391 -306.31344,656.6507 -306.45091,656.68651 C -306.70969,656.75391 -306.73334,656.75477 -306.87921,656.71924 C -306.98516,656.69343 -307.11928,656.57993 -307.11928,656.51601 C -307.11928,656.49038 -307.08778,656.5156 -307.04835,656.57193 C -306.98226,656.66627 -306.95353,656.67304 -306.68418,656.65377 C -306.22816,656.62114 -305.68291,656.33585 -305.49748,656.0318 C -305.46364,655.97628 -305.44252,655.94713 -305.43068,655.94314 z M -301.97574,658.38737 L -301.79844,658.56059 C -301.4892,658.8603 -301.37408,659.34189 -301.49428,659.84136 C -301.52135,659.95401 -301.61701,660.20308 -301.70571,660.39513 C -302.29026,661.6614 -304.05093,662.92869 -305.76211,663.31401 C -305.92425,663.35052 -306.27996,663.37717 -306.61325,663.37812 C -307.379,663.38029 -307.67308,663.29465 -308.04268,662.96074 C -308.30767,662.72135 -308.39738,662.50835 -308.41091,662.09735 L -308.42325,661.74818 L -308.39051,662.04006 C -308.33673,662.51659 -308.08143,662.81712 -307.57211,663.00166 C -307.36351,663.07723 -307.21943,663.09317 -306.79191,663.09168 C -305.35936,663.0867 -303.78835,662.39277 -302.75184,661.30625 C -302.08253,660.60459 -301.76028,660.08237 -301.65931,659.53446 C -301.58945,659.15534 -301.63595,658.89755 -301.82298,658.61788 L -301.97574,658.38737 z "
       style="fill:#000000" />
    <text
       xml:space="preserve"
       style="font-size:9px;font-style:normal;font-variant:normal;font-weight:normal;font-stretch:normal;text-align:start;line-height:125%;writing-mode:lr-tb;text-anchor:start;fill:#000000;fill-opacity:1;stroke:none;stroke-width:1pt;stroke-linecap:butt;stroke-linejoin:miter;stroke-opacity:1;font-family:Bitstream Vera Sans"
       x="-317.37048"
       y="639.63196"
       id="text3149"
       sodipodi:linespacing="125%"><tspan
         sodipodi:role="line"
         id="tspan3151"
         x="-317.37048"
         y="639.63196">16x16</tspan></text>
  </g>
</svg>
