<?xml version="1.0" encoding="UTF-8" standalone="no"?>
<!-- Created with Inkscape (http://www.inkscape.org/) -->
<svg
   xmlns:dc="http://purl.org/dc/elements/1.1/"
   xmlns:cc="http://web.resource.org/cc/"
   xmlns:rdf="http://www.w3.org/1999/02/22-rdf-syntax-ns#"
   xmlns:svg="http://www.w3.org/2000/svg"
   xmlns="http://www.w3.org/2000/svg"
   xmlns:sodipodi="http://sodipodi.sourceforge.net/DTD/sodipodi-0.dtd"
   xmlns:inkscape="http://www.inkscape.org/namespaces/inkscape"
   width="744.09448819"
   height="1052.3622047"
   id="svg2"
   sodipodi:version="0.32"
   inkscape:version="0.45.1"
   sodipodi:docbase="/home/prometheus/emonet/projects/OMiSCID-WebSite/image"
   sodipodi:docname="icons.svg"
   inkscape:output_extension="org.inkscape.output.svg.inkscape">
  <defs
     id="defs4" />
  <sodipodi:namedview
     id="base"
     pagecolor="#ffffff"
     bordercolor="#666666"
     borderopacity="1.0"
     gridtolerance="10000"
     guidetolerance="10"
     objecttolerance="10"
     inkscape:pageopacity="0.0"
     inkscape:pageshadow="2"
     inkscape:zoom="0.49497475"
     inkscape:cx="400.85822"
     inkscape:cy="407.71403"
     inkscape:document-units="px"
     inkscape:current-layer="layer1"
     inkscape:window-width="1280"
     inkscape:window-height="982"
     inkscape:window-x="1280"
     inkscape:window-y="0" />
  <metadata
     id="metadata7">
    <rdf:RDF>
      <cc:Work
         rdf:about="">
        <dc:format>image/svg+xml</dc:format>
        <dc:type
           rdf:resource="http://purl.org/dc/dcmitype/StillImage" />
      </cc:Work>
    </rdf:RDF>
  </metadata>
  <g
     inkscape:label="Layer 1"
     inkscape:groupmode="layer"
     id="layer1">
    <rect
       style="opacity:1;color:#000000;fill:#414ed9;fill-opacity:1;fill-rule:nonzero;stroke:none;stroke-width:1pt;stroke-linecap:butt;stroke-linejoin:miter;marker:none;marker-start:none;marker-mid:none;marker-end:none;stroke-miterlimit:4;stroke-dasharray:none;stroke-dashoffset:0;stroke-opacity:1;visibility:visible;display:inline;overflow:visible;enable-background:accumulate"
       id="rect3259"
       width="721.42859"
       height="985.71429"
       x="4.4091449"
       y="32.188877" />
    <g
       id="g2272"
       inkscape:export-filename="/home/prometheus/emonet/projects/OMiSCIDGui/,,frame48.png"
       inkscape:export-xdpi="9"
       inkscape:export-ydpi="9"
       transform="translate(471.42857,248.57143)">
      <rect
         y="-145.67874"
         x="-373.75644"
         height="480"
         width="480"
         id="rect2270"
         style="opacity:0;color:#000000;fill:#ff6767;fill-opacity:1;fill-rule:nonzero;stroke:none;stroke-width:1pt;stroke-linecap:butt;stroke-linejoin:miter;marker:none;marker-start:none;marker-mid:none;marker-end:none;stroke-miterlimit:4;stroke-dasharray:none;stroke-dashoffset:0;stroke-opacity:1;visibility:visible;display:inline;overflow:visible;enable-background:accumulate" />
      <path
         style="opacity:1;color:#000000;fill:#ffffff;fill-opacity:1;fill-rule:nonzero;stroke:none;stroke-width:1pt;stroke-linecap:butt;stroke-linejoin:miter;marker:none;marker-start:none;marker-mid:none;marker-end:none;stroke-miterlimit:4;stroke-dasharray:none;stroke-dashoffset:0;stroke-opacity:1;visibility:visible;display:inline;overflow:visible;enable-background:accumulate"
         d="M -57.28125,-95.875 C -125.22677,-95.493162 -198.14623,-85.583304 -236.125,-63.65625 C -299.38503,-27.133054 -346.56169,24.126685 -373.75,76.15625 L -373.75,248.28125 C -314.23359,313.40299 -165.1799,297.56856 -41.65625,209.6875 C 30.585091,158.2913 84.446431,97.128379 106.25,41.65625 L 106.25,-51.84375 C 102.46394,-58.63557 97.623056,-65.033194 91.6875,-70.96875 C 73.619665,-87.110945 10.664266,-96.256838 -57.28125,-95.875 z "
         id="rect3256" />
      <path
         inkscape:export-ydpi="4.4000001"
         inkscape:export-xdpi="4.4000001"
         inkscape:export-filename="/home/prometheus/emonet/projects/OMiSCIDGui/,,frame16.png"
         id="path2257"
         d="M -133.28627,-78.267788 C -138.70597,-78.166188 -144.92706,-77.285638 -149.46431,-75.684738 C -160.78099,-71.691828 -172.99058,-63.336558 -175.15884,-58.101881 C -176.77655,-54.196384 -176.69275,-53.256713 -174.43378,-50.760586 C -173.00862,-49.1858 -169.95071,-47.905637 -167.6816,-47.905637 C -165.41251,-47.905637 -163.55779,-47.313113 -163.55779,-46.636772 C -163.55779,-45.96043 -165.38867,-40.927745 -167.63629,-35.443562 C -171.71451,-25.492724 -171.74866,-25.498293 -180.55152,-22.347054 C -193.9818,-17.539299 -207.20345,-10.87697 -214.67495,-5.172048 L -221.38182,-0.051267994 L -238.91936,-0.051267994 L -256.45689,-0.051267994 L -255.59588,-3.359383 C -254.61817,-7.254888 -257.96663,-10.756319 -264.02477,-12.196127 C -274.09352,-14.589106 -301.28068,-2.949793 -311.47129,8.105727 C -318.76452,16.01794 -319.00824,21.235734 -312.24168,24.465033 C -303.21946,28.770839 -276.02891,19.920246 -263.84351,8.694844 L -258.99463,4.208496 L -243.04317,4.616346 L -227.13703,5.024196 L -230.35451,8.649527 C -234.36255,13.169039 -240.40313,25.801693 -240.4148,29.676447 C -240.43989,37.992883 -230.90549,45.55824 -218.16433,47.30462 L -211.63874,48.21095 L -216.75952,58.54314 L -221.8803,68.92065 L -234.43301,73.04447 C -263.95232,82.72577 -301.27836,105.20938 -324.70375,127.37912 C -354.16499,155.26117 -368.86263,180.50846 -370.51887,206.13943 C -371.52258,221.67228 -368.66811,230.7733 -359.77883,240.67071 C -352.7821,248.46098 -338.26961,255.84565 -325.9273,257.89103 C -295.21869,262.98013 -257.64645,254.99075 -217.71117,234.87018 C -192.4657,222.15078 -174.17505,209.15217 -155.40079,190.64114 C -129.3948,164.99977 -116.98206,144.13576 -112.98442,119.31276 C -110.37059,103.08235 -115.03532,89.07812 -126.57941,78.43715 C -139.76123,66.28656 -158.79084,61.2315 -185.30977,62.84822 C -193.68429,63.35879 -203.12347,64.40955 -206.29137,65.15937 C -209.45926,65.90921 -212.27107,66.29439 -212.54507,66.02039 C -213.2025,65.36296 -204.33567,47.8031 -203.34579,47.8031 C -202.92486,47.8031 -197.76586,46.84351 -191.88068,45.6279 C -166.03939,40.290226 -139.55235,25.054005 -126.17156,7.879144 L -121.14142,1.398864 L -110.44669,1.398864 C -104.57158,1.398864 -99.751962,1.96385 -99.751962,2.622414 C -99.751962,3.280948 -101.36638,5.307479 -103.33198,7.154078 C -105.29756,9.000647 -109.64851,16.054207 -112.98442,22.788318 C -118.2992,33.517064 -119.05685,36.221996 -119.05685,44.8122 C -119.05685,52.8616 -118.30281,55.98444 -114.88772,62.25911 C -107.2472,76.29726 -92.259911,85.21481 -69.797664,89.13187 C -44.910492,93.47183 -16.420411,90.68095 12.633299,81.0202 C 70.705619,61.71032 111.10555,19.830932 103.49316,-13.147776 C 98.993179,-32.642747 82.108999,-44.646653 51.560289,-49.990203 C 35.514939,-52.796847 28.749489,-52.794831 10.095569,-50.035519 C -10.040311,-47.056962 -32.214641,-40.380929 -50.084927,-31.908864 C -64.698984,-24.980538 -83.939704,-12.765971 -88.966602,-7.211297 C -91.160072,-4.787531 -93.453877,-4.401665 -105.05401,-4.401665 L -118.60368,-4.401665 L -118.60368,-10.292828 C -118.60368,-18.004574 -124.06445,-23.613918 -134.60046,-26.742768 C -143.13185,-29.276323 -149.49532,-29.503109 -158.84486,-27.694417 C -162.23454,-27.038682 -165.00792,-27.02476 -165.00792,-27.6491 C -165.00792,-28.273455 -163.75085,-31.776322 -162.19829,-35.398245 C -160.64575,-39.020183 -159.17749,-43.123188 -158.93549,-44.552206 C -158.69351,-45.98121 -156.85093,-47.583084 -154.85699,-48.086904 C -154.35116,-48.214719 -154.10323,-48.306556 -153.76939,-48.40412 C -153.03394,-48.485168 -152.17719,-48.578165 -151.23166,-48.766654 C -149.27566,-49.156565 -147.6725,-49.648726 -147.10785,-49.990203 C -144.10448,-50.923943 -139.36604,-52.915743 -136.63971,-54.3406 C -136.56683,-54.37868 -136.52824,-54.394008 -136.45844,-54.431233 C -135.68753,-54.745752 -134.65597,-55.263624 -133.55817,-55.881366 C -132.16047,-56.667888 -131.06348,-57.429382 -130.43133,-57.965931 C -130.33154,-58.04112 -130.17509,-58.155724 -130.06879,-58.237831 C -130.05039,-58.256842 -130.0396,-58.265238 -130.02348,-58.283147 C -128.9398,-59.123021 -127.5712,-60.266768 -125.85435,-61.817848 C -119.26393,-67.771898 -117.98512,-74.206848 -122.86345,-76.817648 C -124.52182,-77.705188 -127.49572,-78.182978 -131.02044,-78.267788 C -131.75476,-78.285448 -132.51203,-78.282298 -133.28627,-78.267788 z M -124.72143,-74.733088 C -124.66858,-74.752358 -124.60571,-74.744198 -124.54016,-74.733088 C -124.46525,-74.720398 -124.35866,-74.698328 -124.26826,-74.642458 C -121.41922,-72.881658 -123.23699,-67.322638 -128.34676,-62.089748 C -130.23761,-60.153338 -131.41993,-58.804688 -132.06273,-57.920614 C -132.69167,-57.627688 -133.3897,-57.304642 -134.14729,-56.878332 C -134.98706,-56.405777 -135.66649,-55.936181 -136.27717,-55.518833 C -136.29764,-55.504839 -136.34768,-55.532696 -136.36781,-55.518833 C -137.48486,-55.174673 -139.02336,-54.563674 -140.7182,-53.842117 C -144.10789,-52.398989 -147.86011,-50.857541 -149.05646,-50.398053 C -149.20258,-50.341932 -149.3024,-50.316657 -149.419,-50.262103 C -150.05045,-50.179315 -150.70483,-50.04976 -151.45825,-49.89957 C -152.67493,-49.657035 -153.75251,-49.389311 -154.53978,-49.129187 C -155.0638,-49.171212 -155.5264,-49.220153 -156.30713,-49.265137 C -156.93701,-49.301419 -157.22466,-49.362585 -157.66663,-49.401086 C -158.24324,-49.12823 -159.96034,-48.936305 -162.01702,-48.993237 C -164.02618,-49.048849 -165.72124,-49.287179 -166.3221,-49.582353 C -166.64164,-49.558585 -166.89619,-49.517242 -167.36439,-49.49172 C -169.06126,-49.399201 -171.34522,-50.497749 -172.43985,-51.893502 C -173.52167,-53.272926 -173.93487,-53.830298 -173.61808,-53.706167 C -173.42801,-53.631688 -172.96801,-53.294808 -172.25858,-52.754518 C -171.06222,-51.84337 -168.77827,-50.790139 -167.18312,-50.398053 C -166.69876,-50.278997 -166.40831,-50.211435 -166.09552,-50.126153 C -165.35994,-50.344963 -163.797,-50.448575 -161.97171,-50.398053 C -160.6848,-50.362423 -159.53509,-50.281433 -158.70891,-50.126153 C -158.69044,-50.132794 -158.68286,-50.119395 -158.66359,-50.126153 C -157.75186,-50.44595 -155.92805,-50.888328 -153.08964,-51.576285 C -142.22805,-54.208855 -134.98482,-58.057289 -128.93588,-64.355578 C -125.49509,-67.938188 -124.26265,-70.366288 -124.81206,-72.467258 C -125.14198,-73.728838 -125.0914,-74.598168 -124.72143,-74.733088 z M 68.010229,-37.029644 C 68.258669,-37.083111 69.177979,-36.656714 70.638589,-35.896728 C 76.812209,-32.684511 85.312479,-23.465802 87.949549,-17.13564 C 92.655459,-5.839341 89.446769,12.795339 80.744199,24.691617 C 74.140259,33.719125 60.662799,46.48989 50.789909,53.05983 C 29.617509,67.14901 -0.90534126,78.22949 -26.339011,81.06551 C -51.710061,83.89455 -72.180362,81.21521 -88.604069,72.90852 C -94.366504,69.99403 -103.90878,61.07858 -106.36819,56.32263 C -109.51079,50.24553 -108.86243,49.68619 -105.14464,55.23503 C -100.94177,61.5079 -90.004244,68.88128 -80.401758,71.91155 C -67.61913,75.94537 -42.175515,76.22017 -22.849631,72.54599 C 22.082519,64.00365 53.273479,46.53863 71.726189,19.616153 C 86.464309,-1.886759 86.687009,-18.261436 72.405939,-32.180764 C 68.976219,-35.523609 67.596169,-36.940534 68.010229,-37.029644 z M -131.38298,-19.718689 C -130.93119,-19.816471 -129.88575,-19.046291 -128.70929,-17.634123 C -125.01057,-13.194326 -125.01764,-4.47787 -128.70929,2.758364 C -135.54748,16.162329 -162.24729,33.888544 -184.58471,39.87269 C -203.2405,44.87053 -222.95611,43.572935 -230.39983,36.836475 C -235.01993,32.655337 -233.51072,31.706835 -228.08868,35.386343 C -221.50426,39.854635 -211.72928,41.145964 -199.22198,39.147623 C -163.14982,33.384217 -128.75461,8.763681 -128.75461,-11.289794 C -128.75461,-13.782412 -129.40717,-16.234862 -130.20474,-16.727791 C -131.00232,-17.22072 -131.6361,-18.360944 -131.60956,-19.310839 C -131.60292,-19.548313 -131.53357,-19.68609 -131.38298,-19.718689 z M -259.71969,-2.226467 C -259.66338,-2.245376 -259.62858,-2.241272 -259.58374,-2.226467 C -259.36848,-2.155396 -259.26809,-1.712888 -259.26653,-0.91228399 C -259.25946,2.681855 -269.75741,12.361735 -278.48078,16.806522 C -282.25585,18.730021 -289.04891,21.281398 -293.61654,22.471101 C -302.21415,24.710497 -303.00017,24.739224 -307.84596,23.558701 C -311.36569,22.701237 -315.82168,18.930096 -315.82169,16.806522 C -315.82169,15.955091 -314.77613,16.792919 -313.46522,18.664504 C -311.26996,21.798675 -310.31506,22.023837 -301.36568,21.383502 C -286.21471,20.299456 -268.1006,10.820796 -261.94021,0.71911501 C -260.81521,-1.125642 -260.1139,-2.09407 -259.71969,-2.226467 z M -144.93265,78.98095 L -139.04149,84.73616 C -128.76676,94.69383 -124.94288,110.69421 -128.93588,127.28848 C -129.83651,131.03135 -133.01449,139.30646 -135.95996,145.68704 C -155.38123,187.75819 -213.87893,229.86263 -270.73164,242.66464 C -276.11864,243.87768 -287.9359,244.76304 -299.00922,244.79453 C -324.45146,244.86693 -334.22162,242.02136 -346.50105,230.92763 C -355.30498,222.97383 -358.28641,215.89745 -358.73655,202.2422 L -359.1444,190.64114 L -358.0568,200.3389 C -356.27081,216.17106 -347.78842,226.15605 -330.86681,232.28713 C -323.93723,234.79788 -319.14915,235.32742 -304.9457,235.27803 C -257.35015,235.1126 -205.15396,212.05719 -170.71782,175.95855 C -148.4794,152.64651 -137.77333,135.29584 -134.41919,117.09224 C -132.09828,104.49623 -133.64265,95.93131 -139.85719,86.63946 L -144.93265,78.98095 z "
         style="fill:#000000" />
    </g>
    <g
       id="g2225"
       transform="translate(-277.14286,-257.14286)" />
    <path
       style="fill:#000000"
       d="M 111.60924,882.52924 C 103.12642,881.11816 92.520411,875.69519 87.836481,870.37396 C 78.312871,859.55457 78.058221,842.36976 87.151481,824.1479 C 94.141061,810.14159 111.75927,791.17108 129.92858,778.08742 C 140.04426,770.80315 165.25635,757.94339 176.03358,754.57095 L 183.13859,752.34763 L 186.71293,745.12401 L 190.28728,737.90038 L 185.6889,737.2701 C 183.15979,736.92345 179.16056,735.5088 176.80174,734.12643 C 169.90715,730.08594 169.17185,723.70596 174.58152,714.86242 C 175.83123,712.81943 177.51492,710.4729 178.32305,709.6479 C 179.62703,708.3167 178.54488,708.11618 168.70707,707.86605 L 157.62175,707.5842 L 154.27516,710.66714 C 145.87221,718.40809 127.12856,724.52376 120.90691,721.55451 C 113.44897,717.99526 119.27418,709.0204 133.83394,701.63792 C 140.64103,698.18641 143.52495,697.30242 149.33394,696.88678 C 155.32692,696.45799 156.79706,696.6714 158.50634,698.21827 C 159.89504,699.47503 160.35893,700.78927 159.96617,702.35415 L 159.39047,704.6479 L 171.36512,704.6479 L 183.33977,704.6479 L 189.13417,700.58016 C 195.44239,696.15172 204.72212,691.57377 212.64067,688.98374 C 217.24995,687.47612 217.87512,686.88705 220.02492,682.02597 C 221.31668,679.10508 222.65973,675.57511 223.00948,674.18158 C 223.58253,671.89838 223.35342,671.6479 220.69198,671.6479 C 218.98446,671.6479 216.95586,670.78304 215.88318,669.59773 C 214.0848,667.61054 214.08376,667.44367 215.84941,664.16505 C 217.89801,660.36104 226.32266,654.74589 233.71353,652.25836 C 239.12695,650.43638 248.59259,650.13013 251.49432,651.68308 C 254.85838,653.48347 253.9704,657.92567 249.4257,662.03154 C 244.15565,666.79271 243.01953,666.67522 247.72563,661.85574 C 251.24929,658.24718 252.48652,654.41977 250.52184,653.20554 C 250.02313,652.89732 249.85822,653.57484 250.15537,654.71114 C 250.53424,656.15995 249.68485,657.82961 247.31211,660.30015 C 243.06897,664.7182 238.58647,667.03561 230.92858,668.77028 C 225.03439,670.10544 224.9903,670.14048 228.42858,670.75701 C 231.07612,671.23176 231.31968,671.41702 229.42858,671.51765 C 227.27186,671.63241 226.65912,672.50869 224.96618,677.89929 C 223.88686,681.33602 222.86199,684.5979 222.68869,685.1479 C 222.48879,685.78232 225.91734,686.02999 232.06696,685.82539 C 247.23607,685.32069 254.42858,689.16672 254.42858,697.78276 L 254.42858,701.6479 L 263.48469,701.6479 L 272.5408,701.6479 L 278.61506,696.73298 C 285.56163,691.11226 300.03321,682.84405 309.48609,679.09511 C 313.02946,677.68984 321.10358,675.1549 327.42858,673.46192 C 342.00812,669.55948 364.17767,668.45975 376.33452,671.03593 C 405.20861,677.15468 415.8573,697.12526 402.36779,719.85881 C 384.08131,750.67658 328.7487,773.27641 288.72562,766.27435 C 266.07762,762.31207 254.42858,751.77083 254.42858,735.23889 C 254.42858,729.05533 254.90755,727.25568 258.46411,720.07617 C 260.68366,715.59564 263.60866,710.8879 264.96411,709.61452 C 266.31957,708.34113 267.42858,706.92771 267.42858,706.47359 C 267.42858,706.01946 264.11378,705.6479 260.06235,705.6479 L 252.69613,705.6479 L 249.31235,709.97184 C 239.30224,722.76324 219.11954,733.68165 199.16921,737.09823 C 195.78561,737.67769 195.10438,738.34717 192.35374,743.79616 C 190.67288,747.12593 189.45223,750.00488 189.64118,750.19383 C 189.83013,750.38278 191.7721,750.11432 193.95665,749.59724 C 196.14121,749.08017 202.65358,748.36904 208.42858,748.01696 C 255.64318,745.13849 272.63713,776.4725 245.77542,816.87829 C 218.75393,857.52441 153.43477,889.48675 111.60924,882.52924 z M 150.5864,871.73168 C 168.49659,867.5473 184.37389,860.50452 201.43331,849.17723 C 241.8168,822.363 260.00304,782.14775 240.35615,763.10713 L 236.27086,759.1479 L 239.79027,764.41004 C 249.93949,779.58494 242.58575,800.89148 218.53355,825.99874 C 201.07921,844.21873 177.94484,857.12211 150.77436,863.792 C 134.22789,867.85387 117.51271,868.26685 108.07402,864.84701 C 96.149881,860.52663 90.476491,853.71051 89.313741,842.30805 L 88.583601,835.1479 L 88.833431,843.6479 C 89.126131,853.60654 91.089431,858.3019 97.311101,863.9228 C 103.25002,869.28826 109.64558,872.09173 120.42858,874.05629 C 125.50207,874.98063 142.18389,873.69477 150.5864,871.73168 z M 328.42858,759.01246 C 354.07534,753.73025 378.0346,739.82218 391.41365,722.45039 C 404.06125,706.02834 399.39034,685.6838 381.17858,677.87058 C 377.11061,676.12534 377.82218,676.97199 383.26917,680.35802 C 386.85544,682.58737 388.79887,684.74998 390.76917,688.70384 C 395.22882,697.65321 393.9043,705.6507 385.99112,717.55382 C 373.11823,736.91742 350.3895,749.45923 317.90492,755.12407 C 292.93951,759.47767 270.63054,754.2265 263.34718,742.28207 C 261.11307,738.61822 260.77559,739.48447 262.86384,743.52271 C 266.00647,749.59988 275.3775,756.18327 284.4342,758.67644 C 296.05973,761.87676 313.86135,762.01272 328.42858,759.01246 z M 207.01862,732.6578 C 223.65742,728.47157 242.493,716.32244 247.47034,706.56604 C 250.01608,701.57597 250.01246,695.57033 247.46185,692.50868 C 246.38015,691.21025 245.48015,690.68384 245.46185,691.33888 C 245.44355,691.99392 245.87858,692.80798 246.42858,693.1479 C 247.8922,694.05247 247.64899,699.18463 245.94977,703.25142 C 243.69329,708.65195 232.9015,718.70765 224.89135,722.87349 C 214.62518,728.21261 201.57871,731.80869 191.92858,731.95921 C 183.69078,732.0877 181.14274,731.31505 176.47423,727.27294 L 174.01988,725.1479 L 175.54858,727.6479 C 179.65556,734.36435 192.26015,736.37094 207.01862,732.6578 z M 133.73528,720.15623 C 145.47193,717.09922 157.47444,708.65515 157.38943,703.51492 C 157.35447,701.40048 157.20222,701.48837 155.96265,704.3386 C 153.15452,710.79547 139.66897,718.32718 129.15874,719.30864 C 123.43356,719.84326 122.44889,719.66821 120.56083,717.78016 C 119.38809,716.60742 118.42858,716.02816 118.42858,716.49291 C 118.42858,717.54213 121.41633,720.19858 123.42858,720.93847 C 125.9199,721.85451 127.74776,721.71578 133.73528,720.15623 z M 221.42858,669.93383 C 220.60358,669.62793 219.02858,668.91478 217.92858,668.34905 C 216.14072,667.42956 216.07416,667.49693 217.30102,668.98418 C 218.05587,669.89923 219.63087,670.61237 220.80102,670.56895 C 222.26194,670.51474 222.45857,670.31573 221.42858,669.93383 z M 233.92858,669.6479 C 236.67767,668.46658 238.25655,668.46658 236.42858,669.6479 C 235.60358,670.18106 234.25358,670.59254 233.42858,670.5623 C 232.43952,670.52606 232.60984,670.21458 233.92858,669.6479 z M 238.51191,668.28335 C 238.74108,668.08286 240.05358,667.38303 241.42858,666.72819 C 243.78585,665.60554 243.81776,665.62636 241.98745,667.09273 C 240.39445,668.36899 237.13959,669.48401 238.51191,668.28335 z "
       id="path2221" />
  </g>
</svg>
