<?xml version="1.0" encoding="UTF-8" standalone="no"?>
<!-- Created with Inkscape (http://www.inkscape.org/) -->
<svg
   xmlns:dc="http://purl.org/dc/elements/1.1/"
   xmlns:cc="http://creativecommons.org/ns#"
   xmlns:rdf="http://www.w3.org/1999/02/22-rdf-syntax-ns#"
   xmlns:svg="http://www.w3.org/2000/svg"
   xmlns="http://www.w3.org/2000/svg"
   xmlns:xlink="http://www.w3.org/1999/xlink"
   xmlns:sodipodi="http://sodipodi.sourceforge.net/DTD/sodipodi-0.dtd"
   xmlns:inkscape="http://www.inkscape.org/namespaces/inkscape"
   id="svg2"
   sodipodi:version="0.32"
   inkscape:version="0.46"
   width="200"
   height="158"
   version="1.0"
   sodipodi:docname="main-download.svg"
   inkscape:output_extension="org.inkscape.output.svg.inkscape">
  <sodipodi:namedview
     inkscape:cy="98.139749"
     inkscape:cx="32.322408"
     inkscape:zoom="1.3493151"
     inkscape:window-height="959"
     inkscape:window-width="1280"
     inkscape:pageshadow="2"
     inkscape:pageopacity="0.0"
     guidetolerance="10.0"
     gridtolerance="10.0"
     objecttolerance="10.0"
     borderopacity="1.0"
     bordercolor="#666666"
     pagecolor="#ffffff"
     id="base"
     showgrid="false"
     inkscape:window-x="0"
     inkscape:window-y="0"
     inkscape:current-layer="svg2" />
  <metadata
     id="metadata7">
    <rdf:RDF>
      <cc:Work
         rdf:about="">
        <dc:format>image/svg+xml</dc:format>
        <dc:type
           rdf:resource="http://purl.org/dc/dcmitype/StillImage" />
      </cc:Work>
    </rdf:RDF>
  </metadata>
  <defs
     id="defs5">
    <inkscape:perspective
       id="perspective9"
       inkscape:persp3d-origin="372.04724 : 350.78739 : 1"
       inkscape:vp_z="744.09448 : 526.18109 : 1"
       inkscape:vp_y="0 : 1000 : 0"
       inkscape:vp_x="0 : 526.18109 : 1"
       sodipodi:type="inkscape:persp3d" />
    <linearGradient
       id="linearGradient3378">
      <stop
         id="stop3380"
         offset="0"
         style="stop-color: rgb(136, 255, 0); stop-opacity: 1;" />
      <stop
         id="stop3382"
         offset="1"
         style="stop-color: rgb(37, 116, 0); stop-opacity: 1;" />
    </linearGradient>
    <inkscape:perspective
       id="perspective10"
       inkscape:persp3d-origin="372.04724 : 350.78739 : 1"
       inkscape:vp_z="744.09448 : 526.18109 : 1"
       inkscape:vp_y="0 : 1000 : 0"
       inkscape:vp_x="0 : 526.18109 : 1"
       sodipodi:type="inkscape:persp3d" />
    <inkscape:perspective
       sodipodi:type="inkscape:persp3d"
       inkscape:vp_x="0 : 526.18109 : 1"
       inkscape:vp_y="0 : 1000 : 0"
       inkscape:vp_z="744.09448 : 526.18109 : 1"
       inkscape:persp3d-origin="372.04724 : 350.78739 : 1"
       id="perspective2562" />
    <filter
       id="filter3398"
       inkscape:collect="always">
      <feGaussianBlur
         id="feGaussianBlur3400"
         stdDeviation="1.6711459"
         inkscape:collect="always" />
    </filter>
    <linearGradient
       y2="329.21875"
       x2="595.51044"
       y1="509.84375"
       x1="595.51044"
       gradientUnits="userSpaceOnUse"
       id="linearGradient3411"
       xlink:href="#linearGradient3378"
       inkscape:collect="always" />
    <linearGradient
       y2="329.21875"
       x2="595.51044"
       y1="509.84375"
       x1="595.51044"
       gradientUnits="userSpaceOnUse"
       id="linearGradient3441"
       xlink:href="#linearGradient3378"
       inkscape:collect="always" />
    <inkscape:perspective
       sodipodi:type="inkscape:persp3d"
       inkscape:vp_x="0 : 526.18109 : 1"
       inkscape:vp_y="0 : 1000 : 0"
       inkscape:vp_z="744.09448 : 526.18109 : 1"
       inkscape:persp3d-origin="372.04724 : 350.78739 : 1"
       id="perspective22" />
    <linearGradient
       inkscape:collect="always"
       xlink:href="#linearGradient3378"
       id="linearGradient2924"
       gradientUnits="userSpaceOnUse"
       x1="595.51044"
       y1="509.84375"
       x2="595.51044"
       y2="329.21875" />
    <inkscape:perspective
       id="perspective2527"
       inkscape:persp3d-origin="150 : 183.33333 : 1"
       inkscape:vp_z="300 : 275 : 1"
       inkscape:vp_y="0 : 1000 : 0"
       inkscape:vp_x="0 : 275 : 1"
       sodipodi:type="inkscape:persp3d" />
    <radialGradient
       gradientTransform="matrix(2.38272e-8,-0.296405,1.43676,4.68367e-7,-128.544,150.52)"
       gradientUnits="userSpaceOnUse"
       xlink:href="#linearGradient2795"
       id="radialGradient1480"
       fy="132.28575"
       fx="61.518883"
       r="29.036913"
       cy="132.28575"
       cx="61.518883" />
    <linearGradient
       gradientTransform="matrix(0.562541,0,0,0.567972,-9.39975,-5.30532)"
       gradientUnits="userSpaceOnUse"
       xlink:href="#linearGradient4689"
       id="linearGradient1478"
       y2="114.39767"
       x2="135.66525"
       y1="20.603781"
       x1="26.648937" />
    <linearGradient
       gradientTransform="matrix(0.562541,0,0,0.567972,-9.39975,-5.30532)"
       gradientUnits="userSpaceOnUse"
       xlink:href="#linearGradient4671"
       id="linearGradient1475"
       y2="137.27299"
       x2="112.03144"
       y1="192.35176"
       x1="150.96111" />
    <radialGradient
       gradientTransform="matrix(1, 0, 0, 0.177966, 0, 108.743)"
       gradientUnits="userSpaceOnUse"
       xlink:href="#linearGradient2795"
       id="radialGradient2801"
       fy="132.28575"
       fx="61.518883"
       r="29.036913"
       cy="132.28575"
       cx="61.518883" />
    <linearGradient
       gradientTransform="matrix(0.562541, 0, 0, 0.567972, -11.5974, -7.60954)"
       gradientUnits="userSpaceOnUse"
       xlink:href="#linearGradient4689"
       id="linearGradient2258"
       y2="76.313133"
       x2="26.670298"
       y1="76.176224"
       x1="172.94208" />
    <linearGradient
       gradientTransform="matrix(0.562541, 0, 0, 0.567972, -11.5974, -7.60954)"
       gradientUnits="userSpaceOnUse"
       xlink:href="#linearGradient4671"
       id="linearGradient2255"
       y2="144.75717"
       x2="-65.308502"
       y1="144.75717"
       x1="224.23996" />
    <linearGradient
       gradientTransform="translate(100.27, 99.6112)"
       gradientUnits="userSpaceOnUse"
       xlink:href="#linearGradient4671"
       id="linearGradient2250"
       y2="144.75717"
       x2="-65.308502"
       y1="144.75717"
       x1="224.23996" />
    <linearGradient
       gradientTransform="translate(100.27, 99.6112)"
       gradientUnits="userSpaceOnUse"
       xlink:href="#linearGradient4689"
       id="linearGradient2248"
       y2="76.313133"
       x2="26.670298"
       y1="77.475983"
       x1="172.94208" />
    <linearGradient
       gradientTransform="translate(100.27, 99.6112)"
       gradientUnits="userSpaceOnUse"
       xlink:href="#linearGradient4671"
       id="linearGradient2589"
       y2="144.75717"
       x2="-65.308502"
       y1="144.75717"
       x1="224.23996" />
    <linearGradient
       gradientTransform="translate(100.27, 99.6112)"
       gradientUnits="userSpaceOnUse"
       xlink:href="#linearGradient4689"
       id="linearGradient2587"
       y2="76.313133"
       x2="26.670298"
       y1="77.475983"
       x1="172.94208" />
    <linearGradient
       gradientTransform="translate(100.27, 99.6112)"
       gradientUnits="userSpaceOnUse"
       xlink:href="#linearGradient4689"
       id="linearGradient2990"
       y2="76.313133"
       x2="26.670298"
       y1="77.475983"
       x1="172.94208" />
    <linearGradient
       gradientTransform="translate(100.27, 99.6112)"
       gradientUnits="userSpaceOnUse"
       xlink:href="#linearGradient4671"
       id="linearGradient2987"
       y2="144.75717"
       x2="-65.308502"
       y1="144.75717"
       x1="224.23996" />
    <linearGradient
       id="linearGradient4689">
      <stop
         id="stop4691"
         offset="0"
         style="stop-color: rgb(90, 159, 212); stop-opacity: 1;" />
      <stop
         id="stop4693"
         offset="1"
         style="stop-color: rgb(48, 105, 152); stop-opacity: 1;" />
    </linearGradient>
    <linearGradient
       id="linearGradient4671">
      <stop
         id="stop4673"
         offset="0"
         style="stop-color: rgb(255, 212, 59); stop-opacity: 1;" />
      <stop
         id="stop4675"
         offset="1"
         style="stop-color: rgb(255, 232, 115); stop-opacity: 1;" />
    </linearGradient>
    <linearGradient
       id="linearGradient3236">
      <stop
         id="stop3244"
         offset="0"
         style="stop-color: rgb(244, 244, 244); stop-opacity: 1;" />
      <stop
         id="stop3240"
         offset="1"
         style="stop-color: rgb(255, 255, 255); stop-opacity: 1;" />
    </linearGradient>
    <linearGradient
       id="linearGradient3676">
      <stop
         id="stop3678"
         offset="0"
         style="stop-color: rgb(178, 178, 178); stop-opacity: 0.5;" />
      <stop
         id="stop3680"
         offset="1"
         style="stop-color: rgb(179, 179, 179); stop-opacity: 0;" />
    </linearGradient>
    <linearGradient
       id="linearGradient2787">
      <stop
         id="stop2789"
         offset="0"
         style="stop-color: rgb(127, 127, 127); stop-opacity: 0.5;" />
      <stop
         id="stop2791"
         offset="1"
         style="stop-color: rgb(127, 127, 127); stop-opacity: 0;" />
    </linearGradient>
    <linearGradient
       id="linearGradient2795">
      <stop
         id="stop2797"
         offset="0"
         style="stop-color: rgb(184, 184, 184); stop-opacity: 0.498039;" />
      <stop
         id="stop2799"
         offset="1"
         style="stop-color: rgb(127, 127, 127); stop-opacity: 0;" />
    </linearGradient>
    <inkscape:perspective
       id="perspective2590"
       inkscape:persp3d-origin="243.02499 : 47.924998 : 1"
       inkscape:vp_z="486.04999 : 71.887497 : 1"
       inkscape:vp_y="0 : 1000 : 0"
       inkscape:vp_x="0 : 71.887497 : 1"
       sodipodi:type="inkscape:persp3d" />
  </defs>
  <rect
     style="opacity:1;fill:#000000;fill-opacity:1;fill-rule:evenodd;stroke:none;stroke-width:1;stroke-linecap:butt;stroke-linejoin:miter;marker:none;marker-start:none;marker-mid:none;marker-end:none;stroke-miterlimit:4;stroke-dasharray:none;stroke-dashoffset:0;stroke-opacity:1;visibility:visible;display:inline;overflow:visible;enable-background:accumulate"
     id="rect2410"
     width="200"
     height="158"
     x="0"
     y="-3.5762784e-07" />
  <image
     y="4.0476131"
     x="1"
     id="image11"
     height="152.95239"
     width="198"
     sodipodi:absref="omiscid-logo.jpg"
     xlink:href="omiscid-logo.jpg" />
  <g
     id="layer1"
     transform="matrix(0.1183466,0,0,0.1183466,112.14722,66.105461)">
    <g
       id="g2964"
       transform="matrix(1.43449,0,0,1.43449,-116.433,-160.388)">
      <path
         d="M 359.92918,276.03996 L 324.02116,352.38648 L 324.18032,352.44948 L 323.03432,353.01664 L 261.15029,298.66346 L 125.85855,356.57717 L 190.44842,422.93531 L 190.70309,422.80928 L 191.11692,424.51077 L 184.49558,421.45439 L 92.369865,430.08788 L 191.02142,475.17739 L 198.40676,554.17068 L 376.99185,644.34969 L 377.05555,646.36627 L 378.20155,645.57855 L 378.23335,646.27175 L 378.23335,645.57855 L 517.75893,550.54713 L 517.75893,451.04142 L 590.88013,404.56551 L 518.7776,418.3665 L 573.24446,342.39808 L 359.92918,276.03994 L 359.92918,276.03996 z M 516.86759,419.02821 L 516.99493,419.09121 L 516.83576,419.15421 L 516.86756,419.02818 L 516.86759,419.02821 z"
         id="path2939"
         style="fill:#00002f;fill-opacity:1;fill-rule:evenodd;stroke:none" />
      <path
         d="M 193.03694,421.27987 L 328.1628,352.97449 L 513.77525,418.31007 L 498.92625,535.61714 L 356.37589,592.04332 L 216.79533,522.25304 L 193.03694,421.27987 z"
         id="path2933"
         style="fill:#8d622f;fill-opacity:1;fill-rule:evenodd;stroke:none" />
      <path
         d="M 193.22443,423.25468 L 326.04371,356.24676 L 262.6255,300.00797 L 129.80622,357.44333 L 193.22443,423.25468 L 193.22443,423.25468 z"
         id="path1358"
         style="fill:#9d6e2d;fill-opacity:1;fill-rule:evenodd;stroke:none" />
      <path
         d="M 324.34577,353.27135 L 359.59092,277.56147 L 568.99067,343.37282 L 514.77011,419.76585 L 324.34577,353.27135 z"
         id="path1360"
         style="fill:#9d6e2d;fill-opacity:1;fill-rule:evenodd;stroke:none" />
      <path
         d="M 203.43124,547.49634 L 330.49735,465.1122 L 326.6779,352.97449 L 335.34114,464.69929 L 507.83565,546.01143 L 332.67308,470.1029 L 203.43124,547.49634 z"
         id="path2935"
         style="fill:#000000;fill-opacity:0.578378;fill-rule:evenodd;stroke:none" />
      <path
         d="M 376.41043,644.84093 L 372.29589,510.72248 L 514.52511,430.14577 L 514.52511,549.80277 L 376.41043,644.84093 L 376.41043,644.84093 z"
         id="path2126"
         style="fill:#9d6e2d;fill-opacity:1;fill-rule:evenodd;stroke:none" />
      <path
         d="M 514.69059,418.86901 L 366.555,509.11939 L 446.2377,494.98214 L 586.32503,405.0178 L 514.69059,418.86901 z"
         id="path2888"
         style="fill:#000000;fill-opacity:1;fill-rule:evenodd;stroke:none" />
      <path
         d="M 513.95165,419.40752 L 372.13328,505.52968 L 446.32062,492.36741 L 576.74675,408.60751 L 513.95165,419.40752 z"
         id="path1362"
         style="fill:#9d6e2d;fill-opacity:1;fill-rule:evenodd;stroke:none" />
      <path
         d="M 189.05806,424.16292 L 201.02376,553.39248 L 376.91956,643.13523 L 370.93671,509.11939 L 189.05806,424.16292 L 189.05806,424.16292 z"
         id="path1366"
         style="fill:#9d6e2d;fill-opacity:1;fill-rule:evenodd;stroke:none" />
      <path
         d="M 187.3638,421.76978 L 376.91956,509.94995 L 303.8229,525.87137 L 96.92217,430.34285 L 187.3638,421.76978 z"
         id="path2886"
         style="fill:#000000;fill-opacity:1;fill-rule:evenodd;stroke:none" />
      <path
         d="M 189.05806,422.96635 L 372.13328,508.10582 L 301.53565,523.47823 L 101.70845,431.2438 L 189.05806,422.96635 L 189.05806,422.96635 z"
         id="path1364"
         style="fill:#9d6e2d;fill-opacity:1;fill-rule:evenodd;stroke:none" />
      <path
         d="M 377.5505,644.76508 L 369.1532,508.11214 L 374.75141,508.11214 L 377.5505,644.76508 z"
         id="path2890"
         style="fill:#000000;fill-opacity:1;fill-rule:evenodd;stroke:none" />
      <path
         d="M 193.03694,421.27987 L 325.193,352.97449 L 515.26015,419.79497 L 323.7081,357.42919 L 193.03694,421.27987 z"
         id="path2937"
         style="fill:#000000;fill-opacity:1;fill-rule:evenodd;stroke:none" />
    </g>
  </g>
  <g
     transform="matrix(7.3207068e-2,-6.7341991e-2,6.7341991e-2,7.3207068e-2,93.526961,96.246505)"
     id="layer1-7"
     inkscape:label="Ebene 1">
    <g
       id="g3446">
      <path
         style="fill:#88f288;fill-opacity:1;fill-rule:evenodd;stroke:#008b00;stroke-width:18.09390068;stroke-miterlimit:4;stroke-dasharray:none;stroke-opacity:1"
         d="M 119.51221,12.551409 L 119.51221,189.24975 L 21.904047,188.82567 L 135.2737,340.99828 L 248.64335,493.17089 L 364.34542,342.05847 L 480.11817,190.87537 L 377.98653,190.38062 L 377.98653,12.551409 L 119.51221,12.551409 L 119.51221,12.551409 z"
         id="rect2568" />
      <path
         style="fill:url(#linearGradient2924);fill-opacity:1;fill-rule:evenodd;stroke:none;filter:url(#filter3398)"
         d="M 549.15625,395.34375 C 548.33551,406.10967 535.28665,409.55082 526.34375,407.28125 C 521.18102,406.85014 515.04084,406.5796 521.46284,412.09035 C 545.76744,444.64337 570.00483,477.24646 594.25,509.84375 C 620.27083,475.88542 646.29167,441.92708 672.3125,407.96875 C 661.35421,407.91725 650.39588,407.86541 639.4375,407.84375 C 639.4375,381.63542 639.4375,355.42708 639.4375,329.21875 C 609.34375,329.21875 579.25,329.21875 549.15625,329.21875 C 549.15625,351.26042 549.15625,373.30208 549.15625,395.34375 z"
         id="path3364"
         transform="matrix(2.26174,0,0,2.26174,-1095.39,-704.914)" />
      <path
         style="opacity:0.55914001;fill:#fff5ee;fill-opacity:1;fill-rule:evenodd;stroke:none"
         d="M 124.03569,189.24975 C 119.75243,199.30261 97.269138,191.04016 85.586398,193.63795 C 67.35104,193.56525 49.115681,193.49254 30.880322,193.41983 C 107.06539,290.10589 117.75954,306.62358 162.38981,362.23823 C 190.67834,223.97699 342.82928,298.93616 373.46306,17.074887 C 290.32059,17.074887 207.17815,17.074887 124.03569,17.074887 C 124.03569,74.466506 124.03569,131.85813 124.03569,189.24975 L 124.03569,189.24975 z"
         id="path3402"
         sodipodi:nodetypes="ccccccc" />
    </g>
  </g>
  <text
     xml:space="preserve"
     style="font-size:11px;font-style:normal;font-variant:normal;font-weight:normal;font-stretch:normal;text-align:start;line-height:125%;writing-mode:lr-tb;text-anchor:start;fill:#ffffff;fill-opacity:1;stroke:none;stroke-width:1pt;stroke-linecap:butt;stroke-linejoin:miter;stroke-opacity:1;font-family:STIXSize1;-inkscape-font-specification:STIXSize1"
     x="49.801208"
     y="83.320488"
     id="text2411"
     sodipodi:linespacing="125%"
     transform="matrix(0.9233023,-0.384074,0.384074,0.9233023,0,0)"><tspan
       sodipodi:role="line"
       id="tspan2413"
       x="49.801208"
       y="83.320488">C++</tspan></text>
  <text
     xml:space="preserve"
     style="font-size:11.00000286px;font-style:normal;font-variant:normal;font-weight:normal;font-stretch:normal;text-align:start;line-height:125%;writing-mode:lr-tb;text-anchor:start;fill:#ffffff;fill-opacity:1;stroke:none;stroke-width:1pt;stroke-linecap:butt;stroke-linejoin:miter;stroke-opacity:1;font-family:STIXSize1;-inkscape-font-specification:STIXSize1"
     x="-3.119936"
     y="126.97783"
     id="text2415"
     sodipodi:linespacing="125%"
     transform="matrix(0.8520864,-0.5234012,0.5234012,0.8520864,0,0)"><tspan
       sodipodi:role="line"
       id="tspan2417"
       x="-3.119936"
       y="126.97783">Java</tspan></text>
  <text
     xml:space="preserve"
     style="font-size:11.00000572px;font-style:normal;font-variant:normal;font-weight:normal;font-stretch:normal;text-align:start;line-height:125%;writing-mode:lr-tb;text-anchor:start;fill:#ffffff;fill-opacity:1;stroke:none;stroke-width:1pt;stroke-linecap:butt;stroke-linejoin:miter;stroke-opacity:1;font-family:STIXSize1;-inkscape-font-specification:STIXSize1"
     x="111.0592"
     y="105.83485"
     id="text2419"
     sodipodi:linespacing="125%"
     transform="matrix(0.9353996,-0.3535925,0.3535925,0.9353996,0,0)"><tspan
       sodipodi:role="line"
       id="tspan2421"
       x="111.0592"
       y="105.83485">Python</tspan></text>
  <text
     xml:space="preserve"
     style="font-size:11px;font-style:normal;font-variant:normal;font-weight:normal;font-stretch:normal;text-align:start;line-height:125%;writing-mode:lr-tb;text-anchor:start;fill:#ffffff;fill-opacity:1;stroke:none;stroke-width:1pt;stroke-linecap:butt;stroke-linejoin:miter;stroke-opacity:1;font-family:STIXSize1;-inkscape-font-specification:STIXSize1"
     x="10.750553"
     y="66.574448"
     id="text2423"
     sodipodi:linespacing="125%"
     transform="matrix(0.8670843,-0.4981615,0.4981615,0.8670843,0,0)"><tspan
       sodipodi:role="line"
       id="tspan2425"
       x="10.750553"
       y="66.574448">…</tspan></text>
  <text
     xml:space="preserve"
     style="font-size:11px;font-style:normal;font-variant:normal;font-weight:normal;font-stretch:normal;text-align:start;line-height:125%;writing-mode:lr-tb;text-anchor:start;fill:#ffffff;fill-opacity:1;stroke:none;stroke-width:1pt;stroke-linecap:butt;stroke-linejoin:miter;stroke-opacity:1;font-family:STIXSize1;-inkscape-font-specification:STIXSize1"
     x="68.895424"
     y="69.487274"
     id="text2427"
     sodipodi:linespacing="125%"
     transform="matrix(0.8670843,-0.4981615,0.4981615,0.8670843,0,0)"><tspan
       sodipodi:role="line"
       id="tspan2429"
       x="68.895424"
       y="69.487274">…</tspan></text>
  <g
     id="g2530"
     transform="matrix(8.3482077e-2,0,0,8.3482077e-2,31.335741,97.847333)">
    <path
       id="path2498"
       d="M 102.681,291.324 C 102.681,291.324 88.503,299.569 112.771,302.359 C 142.171,305.713 157.197,305.232 189.596,299.1 C 189.596,299.1 198.114,304.441 210.01,309.067 C 137.38,340.195 45.634,307.264 102.681,291.324"
       style="fill:#5382a1" />
    <path
       id="path2500"
       d="M 93.806,250.704 C 93.806,250.704 77.904,262.475 102.19,264.987 C 133.596,268.227 158.398,268.492 201.315,260.228 C 201.315,260.228 207.251,266.246 216.585,269.537 C 128.771,295.215 30.962,271.562 93.806,250.704"
       style="fill:#5382a1" />
    <path
       id="path2502"
       d="M 168.625,181.799 C 186.521,202.403 163.923,220.944 163.923,220.944 C 163.923,220.944 209.364,197.486 188.495,168.111 C 169.004,140.717 154.057,127.106 234.974,80.177 C 234.974,80.177 107.961,111.899 168.625,181.799"
       style="fill:#e76f00" />
    <path
       id="path2504"
       d="M 264.684,321.369 C 264.684,321.369 275.176,330.014 253.129,336.702 C 211.206,349.402 78.641,353.237 41.815,337.208 C 28.577,331.449 53.402,323.457 61.211,321.78 C 69.355,320.014 74.009,320.343 74.009,320.343 C 59.287,309.972 -21.148,340.707 33.152,349.509 C 181.236,373.524 303.095,338.695 264.684,321.369"
       style="fill:#5382a1" />
    <path
       id="path2506"
       d="M 109.499,208.617 C 109.499,208.617 42.068,224.633 85.62,230.449 C 104.009,232.911 140.667,232.354 174.813,229.493 C 202.719,227.139 230.74,222.134 230.74,222.134 C 230.74,222.134 220.9,226.348 213.781,231.209 C 145.306,249.218 13.025,240.84 51.107,222.419 C 83.313,206.851 109.499,208.617 109.499,208.617"
       style="fill:#5382a1" />
    <path
       id="path2508"
       d="M 230.462,276.231 C 300.07,240.06 267.886,205.3 245.422,209.983 C 239.916,211.129 237.461,212.122 237.461,212.122 C 237.461,212.122 239.505,208.92 243.409,207.534 C 287.85,191.91 322.028,253.615 229.063,278.054 C 229.063,278.055 230.14,277.092 230.462,276.231"
       style="fill:#5382a1" />
    <path
       id="path2510"
       d="M 188.495,4.399 C 188.495,4.399 227.045,42.962 151.932,102.261 C 91.699,149.829 138.197,176.951 151.907,207.939 C 116.748,176.217 90.946,148.292 108.256,122.302 C 133.663,84.151 204.049,65.654 188.495,4.399"
       style="fill:#e76f00" />
    <path
       id="path2512"
       d="M 116.339,374.246 C 183.154,378.523 285.756,371.873 288.186,340.258 C 288.186,340.258 283.515,352.243 232.967,361.761 C 175.939,372.493 105.603,371.24 63.886,364.362 C 63.887,364.361 72.426,371.43 116.339,374.246"
       style="fill:#5382a1" />
  </g>
  <g
     id="g2303"
     transform="matrix(0.1236018,0,0,0.1236018,123.37068,52.34909)">
    <path
       d="M 60.510156,6.3979729 C 55.926503,6.4192712 51.549217,6.8101906 47.697656,7.4917229 C 36.35144,9.4962267 34.291407,13.691825 34.291406,21.429223 L 34.291406,31.647973 L 61.103906,31.647973 L 61.103906,35.054223 L 34.291406,35.054223 L 24.228906,35.054223 C 16.436447,35.054223 9.6131468,39.73794 7.4789058,48.647973 C 5.0170858,58.860939 4.9078907,65.233996 7.4789058,75.897973 C 9.3848341,83.835825 13.936449,89.491721 21.728906,89.491723 L 30.947656,89.491723 L 30.947656,77.241723 C 30.947656,68.391821 38.6048,60.585475 47.697656,60.585473 L 74.478906,60.585473 C 81.933857,60.585473 87.885159,54.447309 87.885156,46.960473 L 87.885156,21.429223 C 87.885156,14.162884 81.755176,8.7044455 74.478906,7.4917229 C 69.872919,6.7249976 65.093809,6.3766746 60.510156,6.3979729 z M 46.010156,14.616723 C 48.779703,14.616723 51.041406,16.915369 51.041406,19.741723 C 51.041404,22.558059 48.779703,24.835473 46.010156,24.835473 C 43.23068,24.835472 40.978906,22.558058 40.978906,19.741723 C 40.978905,16.91537 43.23068,14.616723 46.010156,14.616723 z"
       style="fill:url(#linearGradient1478);fill-opacity:1"
       id="path1948" />
    <path
       d="M 91.228906,35.054223 L 91.228906,46.960473 C 91.228906,56.191228 83.403011,63.960472 74.478906,63.960473 L 47.697656,63.960473 C 40.361823,63.960473 34.291407,70.238956 34.291406,77.585473 L 34.291406,103.11672 C 34.291406,110.38306 40.609994,114.65704 47.697656,116.74172 C 56.184987,119.23733 64.323893,119.68835 74.478906,116.74172 C 81.229061,114.78733 87.885159,110.85411 87.885156,103.11672 L 87.885156,92.897973 L 61.103906,92.897973 L 61.103906,89.491723 L 87.885156,89.491723 L 101.29141,89.491723 C 109.08387,89.491723 111.98766,84.056315 114.69765,75.897973 C 117.49698,67.499087 117.37787,59.422197 114.69765,48.647973 C 112.77187,40.890532 109.09378,35.054223 101.29141,35.054223 L 91.228906,35.054223 z M 76.166406,99.710473 C 78.945884,99.710476 81.197656,101.98789 81.197656,104.80422 C 81.197654,107.63057 78.945881,109.92922 76.166406,109.92922 C 73.396856,109.92922 71.135156,107.63057 71.135156,104.80422 C 71.135158,101.98789 73.396853,99.710473 76.166406,99.710473 z"
       style="fill:url(#linearGradient1475);fill-opacity:1"
       id="path1950" />
    <path
       d="M 110.46717,132.28575 C 110.46717,137.03909 88.552276,140.89243 61.518884,140.89243 C 34.485493,140.89243 12.570599,137.03909 12.570599,132.28575 C 12.570599,127.53241 34.485493,123.67907 61.518884,123.67907 C 88.552276,123.67907 110.46717,127.53241 110.46717,132.28575 z"
       transform="matrix(0.73406,0,0,0.809524,16.2496,27.0093)"
       style="opacity:0.44382001;fill:url(#radialGradient1480);fill-opacity:1;fill-rule:nonzero;stroke:none;stroke-width:20;stroke-miterlimit:4;stroke-dasharray:none;stroke-opacity:1"
       id="path1894" />
  </g>
</svg>
